M48
; DRILL file {KiCad 7.0.9} date Fri Apr 12 11:47:27 2024
; FORMAT={-:-/ absolute / inch / decimal}
; #@! TF.CreationDate,2024-04-12T11:47:27+02:00
; #@! TF.GenerationSoftware,Kicad,Pcbnew,7.0.9
; #@! TF.FileFunction,Plated,1,2,PTH
FMAT,2
INCH
; #@! TA.AperFunction,Plated,PTH,ViaDrill
T1C0.0300
; #@! TA.AperFunction,Plated,PTH,ComponentDrill
T2C0.0300
; #@! TA.AperFunction,Plated,PTH,ComponentDrill
T3C0.0315
; #@! TA.AperFunction,Plated,PTH,ComponentDrill
T4C0.0374
; #@! TA.AperFunction,Plated,PTH,ComponentDrill
T5C0.0400
; #@! TA.AperFunction,Plated,PTH,ComponentDrill
T6C0.0598
; #@! TA.AperFunction,Plated,PTH,ViaDrill
T7C0.3543
%
G90
G05
T1
X1.7555Y-6.5179
X2.5155Y-6.5179
X2.6555Y-5.1979
X2.6555Y-5.4879
X2.6655Y-4.8379
X2.6655Y-5.9079
X3.2655Y-6.5179
X4.0155Y-6.5179
X4.1555Y-3.7779
X4.7655Y-6.5179
X5.6055Y-3.2179
X5.7155Y-3.2879
X5.9855Y-3.2979
X6.0055Y-2.4779
X6.0155Y-2.8279
X6.0255Y-3.2479
X6.1055Y-3.3679
X6.1355Y-2.8279
X6.1655Y-3.3679
X6.1955Y-3.2279
X6.2255Y-3.3679
X6.2855Y-3.3679
X6.4955Y-3.9279
X6.5155Y-2.9179
X6.5455Y-3.1679
X6.9955Y-4.7879
X7.3255Y-4.7879
T2
X6.9783Y-4.5864
X7.0768Y-1.8427
X7.0768Y-4.5864
X7.1752Y-4.5864
X7.2736Y-1.8427
X7.2736Y-4.5864
T3
X5.1175Y-5.1969
X5.1181Y-3.7795
X5.1181Y-4.4882
X5.1181Y-5.5512
X5.1181Y-5.9055
X5.1187Y-4.8425
X5.1291Y-4.1339
X5.1963Y-5.1969
X5.1969Y-3.7795
X5.1969Y-5.5512
X5.1969Y-5.9055
X5.1974Y-4.8425
X5.1976Y-2.9724
X5.1976Y-3.0709
X5.2079Y-4.1339
X5.2165Y-4.4882
X5.4606Y-2.9724
X5.4606Y-3.0709
X5.815Y-4.2197
X5.8161Y-3.4402
X5.8161Y-3.511
X5.8161Y-3.5819
X5.8161Y-3.6528
X5.8161Y-3.7236
X5.8161Y-3.7945
X5.8161Y-3.8654
X5.8161Y-3.9362
X5.8161Y-4.0071
X5.8161Y-4.078
X5.8161Y-4.1488
X5.9161Y-3.4047
X5.9161Y-3.4756
X5.9161Y-3.5465
X5.9161Y-3.6173
X5.9161Y-3.6882
X5.9161Y-3.7591
X5.9161Y-3.8299
X5.9161Y-3.9008
X5.9161Y-3.9717
X5.9161Y-4.0425
X5.9161Y-4.1134
X5.9161Y-4.1843
X6.3971Y-3.7579
X6.4068Y-3.3979
X6.4855Y-3.3979
X6.4955Y-3.7579
X6.5551Y-4.7638
X6.6535Y-4.7638
X6.6644Y-3.4079
X6.7431Y-3.4079
X6.9024Y-4.9579
X6.9812Y-4.9579
X7.2568Y-4.9579
X7.3355Y-4.9579
T4
X5.1772Y-2.5404
X5.2756Y-2.5404
X5.374Y-2.5404
X6.5943Y-5.5094
X6.5943Y-5.6079
X6.5943Y-5.7063
X7.1848Y-5.5094
X7.1848Y-5.6079
X7.1848Y-5.7063
T5
X1.2839Y-6.4062
X1.4414Y-1.3756
X1.4414Y-6.4062
X1.5998Y-6.4062
X1.6014Y-1.3756
X1.7563Y-6.4062
X2.0437Y-6.4062
X2.2012Y-1.3756
X2.2012Y-6.4062
X2.3597Y-6.4062
X2.3612Y-1.3756
X2.5162Y-6.4062
X2.7972Y-6.4062
X2.9547Y-1.3756
X2.9547Y-6.4062
X3.1132Y-6.4062
X3.1147Y-1.3756
X3.2697Y-6.4062
X3.5453Y-6.4062
X3.7028Y-1.3756
X3.7028Y-6.4062
X3.8612Y-6.4062
X3.8628Y-1.3756
X4.0177Y-6.4062
X4.2933Y-6.4062
X4.4508Y-1.3756
X4.4508Y-6.4062
X4.6093Y-6.4062
X4.6108Y-1.3756
X4.7657Y-6.4062
T6
X6.0236Y-4.7031
X6.0236Y-4.9031
T7
X6.0355Y-2.0579
T0
M30
