G04 Layer_Color=32896*
%FSLAX24Y24*%
%MOIN*%
G70*
G01*
G75*
%ADD22C,0.0060*%
%ADD25C,0.0050*%
%ADD42C,0.0080*%
%ADD43R,0.0150X0.0011*%
%ADD44R,0.0320X0.0011*%
%ADD45R,0.0420X0.0011*%
%ADD46R,0.0500X0.0011*%
%ADD47R,0.0580X0.0011*%
%ADD48R,0.0640X0.0011*%
%ADD49R,0.0700X0.0011*%
%ADD50R,0.0740X0.0011*%
%ADD51R,0.0800X0.0011*%
%ADD52R,0.0834X0.0011*%
%ADD53R,0.0887X0.0011*%
%ADD54R,0.0918X0.0011*%
%ADD55R,0.0961X0.0011*%
%ADD56R,0.0994X0.0011*%
%ADD57R,0.1025X0.0011*%
%ADD58R,0.1057X0.0011*%
%ADD59R,0.1090X0.0011*%
%ADD60R,0.1111X0.0011*%
%ADD61R,0.0452X0.0011*%
%ADD62R,0.0450X0.0011*%
%ADD63R,0.0404X0.0011*%
%ADD64R,0.0385X0.0011*%
%ADD65R,0.0380X0.0011*%
%ADD66R,0.0357X0.0011*%
%ADD67R,0.0370X0.0011*%
%ADD68R,0.0359X0.0011*%
%ADD69R,0.0340X0.0011*%
%ADD70R,0.0341X0.0011*%
%ADD71R,0.0330X0.0011*%
%ADD72R,0.0311X0.0011*%
%ADD73R,0.0320X0.0011*%
%ADD74R,0.0312X0.0011*%
%ADD75R,0.0300X0.0011*%
%ADD76R,0.0304X0.0011*%
%ADD77R,0.0300X0.0011*%
%ADD78R,0.0295X0.0011*%
%ADD79R,0.0287X0.0011*%
%ADD80R,0.0290X0.0011*%
%ADD81R,0.0274X0.0011*%
%ADD82R,0.0280X0.0011*%
%ADD83R,0.0274X0.0011*%
%ADD84R,0.0270X0.0011*%
%ADD85R,0.0263X0.0011*%
%ADD86R,0.0260X0.0011*%
%ADD87R,0.0251X0.0011*%
%ADD88R,0.0260X0.0011*%
%ADD89R,0.0114X0.0011*%
%ADD90R,0.0114X0.0011*%
%ADD91R,0.0148X0.0011*%
%ADD92R,0.0251X0.0011*%
%ADD93R,0.0250X0.0011*%
%ADD94R,0.0090X0.0011*%
%ADD95R,0.0120X0.0011*%
%ADD96R,0.0285X0.0011*%
%ADD97R,0.0217X0.0011*%
%ADD98R,0.0263X0.0011*%
%ADD99R,0.0190X0.0011*%
%ADD100R,0.0160X0.0011*%
%ADD101R,0.0388X0.0011*%
%ADD102R,0.0217X0.0011*%
%ADD103R,0.0263X0.0011*%
%ADD104R,0.0308X0.0011*%
%ADD105R,0.0331X0.0011*%
%ADD106R,0.0240X0.0011*%
%ADD107R,0.0220X0.0011*%
%ADD108R,0.0240X0.0011*%
%ADD109R,0.0200X0.0011*%
%ADD110R,0.0370X0.0011*%
%ADD111R,0.0457X0.0011*%
%ADD112R,0.0445X0.0011*%
%ADD113R,0.0331X0.0011*%
%ADD114R,0.0388X0.0011*%
%ADD115R,0.0240X0.0011*%
%ADD116R,0.0220X0.0011*%
%ADD117R,0.0460X0.0011*%
%ADD118R,0.0514X0.0011*%
%ADD119R,0.0514X0.0011*%
%ADD120R,0.0343X0.0011*%
%ADD121R,0.0422X0.0011*%
%ADD122R,0.0240X0.0011*%
%ADD123R,0.0330X0.0011*%
%ADD124R,0.0559X0.0011*%
%ADD125R,0.0559X0.0011*%
%ADD126R,0.0263X0.0011*%
%ADD127R,0.0365X0.0011*%
%ADD128R,0.0468X0.0011*%
%ADD129R,0.0240X0.0011*%
%ADD130R,0.0350X0.0011*%
%ADD131R,0.0570X0.0011*%
%ADD132R,0.0530X0.0011*%
%ADD133R,0.0571X0.0011*%
%ADD134R,0.0377X0.0011*%
%ADD135R,0.0491X0.0011*%
%ADD136R,0.0240X0.0011*%
%ADD137R,0.0390X0.0011*%
%ADD138R,0.0580X0.0011*%
%ADD139R,0.0560X0.0011*%
%ADD140R,0.0594X0.0011*%
%ADD141R,0.0594X0.0011*%
%ADD142R,0.0537X0.0011*%
%ADD143R,0.0228X0.0011*%
%ADD144R,0.0410X0.0011*%
%ADD145R,0.0590X0.0011*%
%ADD146R,0.0570X0.0011*%
%ADD147R,0.0605X0.0011*%
%ADD148R,0.0228X0.0011*%
%ADD149R,0.0230X0.0011*%
%ADD150R,0.0640X0.0011*%
%ADD151R,0.0610X0.0011*%
%ADD152R,0.0617X0.0011*%
%ADD153R,0.0400X0.0011*%
%ADD154R,0.0582X0.0011*%
%ADD155R,0.0228X0.0011*%
%ADD156R,0.0230X0.0011*%
%ADD157R,0.0650X0.0011*%
%ADD158R,0.0610X0.0011*%
%ADD159R,0.0628X0.0011*%
%ADD160R,0.0628X0.0011*%
%ADD161R,0.0605X0.0011*%
%ADD162R,0.0670X0.0011*%
%ADD163R,0.0630X0.0011*%
%ADD164R,0.0600X0.0011*%
%ADD165R,0.0639X0.0011*%
%ADD166R,0.0651X0.0011*%
%ADD167R,0.0411X0.0011*%
%ADD168R,0.0628X0.0011*%
%ADD169R,0.0228X0.0011*%
%ADD170R,0.0210X0.0011*%
%ADD171R,0.0680X0.0011*%
%ADD172R,0.0650X0.0011*%
%ADD173R,0.0662X0.0011*%
%ADD174R,0.0651X0.0011*%
%ADD175R,0.0411X0.0011*%
%ADD176R,0.0308X0.0011*%
%ADD177R,0.0308X0.0011*%
%ADD178R,0.0320X0.0011*%
%ADD179R,0.0194X0.0011*%
%ADD180R,0.0046X0.0011*%
%ADD181R,0.0140X0.0011*%
%ADD182R,0.0210X0.0011*%
%ADD183R,0.0280X0.0011*%
%ADD184R,0.0180X0.0011*%
%ADD185R,0.0285X0.0011*%
%ADD186R,0.0148X0.0011*%
%ADD187R,0.0023X0.0011*%
%ADD188R,0.0250X0.0011*%
%ADD189R,0.0140X0.0011*%
%ADD190R,0.0206X0.0011*%
%ADD191R,0.0310X0.0011*%
%ADD192R,0.0110X0.0011*%
%ADD193R,0.0091X0.0011*%
%ADD194R,0.0091X0.0011*%
%ADD195R,0.0069X0.0011*%
%ADD196R,0.0069X0.0011*%
%ADD197R,0.0206X0.0011*%
%ADD198R,0.0410X0.0011*%
%ADD199R,0.0060X0.0011*%
%ADD200R,0.0046X0.0011*%
%ADD201R,0.0040X0.0011*%
%ADD202R,0.0023X0.0011*%
%ADD203R,0.0034X0.0011*%
%ADD204R,0.0490X0.0011*%
%ADD205R,0.0030X0.0011*%
%ADD206R,0.0206X0.0011*%
%ADD207R,0.0510X0.0011*%
%ADD208R,0.0550X0.0011*%
%ADD209R,0.0400X0.0011*%
%ADD210R,0.0217X0.0011*%
%ADD211R,0.0620X0.0011*%
%ADD212R,0.0217X0.0011*%
%ADD213R,0.0525X0.0011*%
%ADD214R,0.0670X0.0011*%
%ADD215R,0.0190X0.0011*%
%ADD216R,0.0270X0.0011*%
%ADD217R,0.0500X0.0011*%
%ADD218R,0.0708X0.0011*%
%ADD219R,0.0719X0.0011*%
%ADD220R,0.0680X0.0011*%
%ADD221R,0.0200X0.0011*%
%ADD222R,0.0520X0.0011*%
%ADD223R,0.0719X0.0011*%
%ADD224R,0.0194X0.0011*%
%ADD225R,0.0719X0.0011*%
%ADD226R,0.0719X0.0011*%
%ADD227R,0.0502X0.0011*%
%ADD228R,0.0720X0.0011*%
%ADD229R,0.0550X0.0011*%
%ADD230R,0.0740X0.0011*%
%ADD231R,0.0480X0.0011*%
%ADD232R,0.0710X0.0011*%
%ADD233R,0.0468X0.0011*%
%ADD234R,0.0530X0.0011*%
%ADD235R,0.0194X0.0011*%
%ADD236R,0.0620X0.0011*%
%ADD237R,0.0490X0.0011*%
%ADD238R,0.0470X0.0011*%
%ADD239R,0.0540X0.0011*%
%ADD240R,0.0480X0.0011*%
%ADD241R,0.0430X0.0011*%
%ADD242R,0.0360X0.0011*%
%ADD243R,0.0206X0.0011*%
%ADD244R,0.0690X0.0011*%
%ADD245R,0.0011X0.0011*%
%ADD246R,0.0502X0.0011*%
%ADD247R,0.0050X0.0011*%
%ADD248R,0.0480X0.0011*%
%ADD249R,0.0030X0.0011*%
%ADD250R,0.0080X0.0011*%
%ADD251R,0.0440X0.0011*%
%ADD252R,0.0070X0.0011*%
%ADD253R,0.0100X0.0011*%
%ADD254R,0.0400X0.0011*%
%ADD255R,0.0514X0.0011*%
%ADD256R,0.0274X0.0011*%
%ADD257R,0.0150X0.0011*%
%ADD258R,0.0160X0.0011*%
%ADD259R,0.0240X0.0021*%
%ADD260R,0.0251X0.0021*%
%ADD261R,0.0217X0.0021*%
%ADD262R,0.0240X0.0021*%
%ADD263R,0.0514X0.0021*%
%ADD264R,0.0628X0.0021*%
%ADD265R,0.0502X0.0021*%
%ADD266R,0.0206X0.0021*%
%ADD267R,0.0310X0.0021*%
%ADD268R,0.0220X0.0021*%
%ADD269R,0.0610X0.0021*%
%ADD270R,0.0670X0.0021*%
%ADD271R,0.0240X0.0021*%
%ADD272R,0.0274X0.0010*%
%ADD273R,0.0285X0.0010*%
%ADD274R,0.0217X0.0010*%
%ADD275R,0.0251X0.0010*%
%ADD276R,0.0514X0.0010*%
%ADD277R,0.0628X0.0010*%
%ADD278R,0.0502X0.0010*%
%ADD279R,0.0206X0.0010*%
%ADD280R,0.0270X0.0010*%
%ADD281R,0.0220X0.0010*%
%ADD282R,0.0590X0.0010*%
%ADD283R,0.0670X0.0010*%
%ADD284R,0.0580X0.0010*%
%ADD285R,0.0594X0.0010*%
%ADD286R,0.0605X0.0010*%
%ADD287R,0.0194X0.0010*%
%ADD288R,0.0230X0.0010*%
%ADD289R,0.0660X0.0010*%
%ADD290R,0.0582X0.0010*%
%ADD291R,0.0582X0.0010*%
%ADD292R,0.0010X0.0010*%
%ADD293R,0.0200X0.0010*%
%ADD294R,0.0650X0.0010*%
%ADD295R,0.0570X0.0010*%
%ADD296R,0.0559X0.0010*%
%ADD297R,0.0559X0.0010*%
%ADD298R,0.0263X0.0010*%
%ADD299R,0.0050X0.0010*%
%ADD300R,0.0560X0.0010*%
%ADD301R,0.0537X0.0010*%
%ADD302R,0.0548X0.0010*%
%ADD303R,0.0537X0.0010*%
%ADD304R,0.0100X0.0010*%
%ADD305R,0.0640X0.0010*%
%ADD306R,0.0550X0.0010*%
%ADD307R,0.0514X0.0010*%
%ADD308R,0.0228X0.0010*%
%ADD309R,0.0150X0.0010*%
%ADD310R,0.0190X0.0010*%
%ADD311R,0.0400X0.0010*%
%ADD312R,0.0530X0.0010*%
%ADD313R,0.0480X0.0020*%
%ADD314R,0.0217X0.0020*%
%ADD315R,0.0480X0.0020*%
%ADD316R,0.0251X0.0020*%
%ADD317R,0.0514X0.0020*%
%ADD318R,0.0491X0.0020*%
%ADD319R,0.0206X0.0020*%
%ADD320R,0.0190X0.0020*%
%ADD321R,0.0220X0.0020*%
%ADD322R,0.0550X0.0020*%
%ADD323R,0.0360X0.0020*%
%ADD324R,0.0510X0.0020*%
%ADD325R,0.0457X0.0010*%
%ADD326R,0.0445X0.0010*%
%ADD327R,0.0540X0.0010*%
%ADD328R,0.0340X0.0010*%
%ADD329R,0.0500X0.0010*%
%ADD330R,0.0411X0.0010*%
%ADD331R,0.0411X0.0010*%
%ADD332R,0.0422X0.0010*%
%ADD333R,0.0171X0.0010*%
%ADD334R,0.0194X0.0010*%
%ADD335R,0.0510X0.0010*%
%ADD336R,0.0310X0.0010*%
%ADD337R,0.0470X0.0010*%
%ADD338R,0.0365X0.0010*%
%ADD339R,0.0377X0.0010*%
%ADD340R,0.0263X0.0010*%
%ADD341R,0.0148X0.0010*%
%ADD342R,0.0320X0.0010*%
%ADD343R,0.0490X0.0010*%
%ADD344R,0.0260X0.0010*%
%ADD345R,0.0410X0.0010*%
%ADD346R,0.0308X0.0010*%
%ADD347R,0.0251X0.0010*%
%ADD348R,0.0308X0.0010*%
%ADD349R,0.0103X0.0010*%
%ADD350R,0.0360X0.0010*%
%ADD351R,0.0330X0.0010*%
%ADD352R,0.0240X0.0010*%
%ADD353R,0.0210X0.0010*%
%ADD354R,0.0300X0.0010*%
%ADD355R,0.0160X0.0010*%
%ADD356R,0.0240X0.0010*%
%ADD357R,0.0057X0.0010*%
%ADD358R,0.0440X0.0010*%
%ADD359R,0.0480X0.0020*%
%ADD360R,0.0210X0.0020*%
%ADD361R,0.0480X0.0010*%
%ADD362R,0.0206X0.0010*%
%ADD363R,0.0460X0.0010*%
%ADD364R,0.0450X0.0010*%
%ADD365R,0.0420X0.0010*%
%ADD366R,0.0420X0.0020*%
%ADD367R,0.0380X0.0010*%
%ADD368R,0.0280X0.0010*%
%ADD369R,0.0228X0.0020*%
%ADD370R,0.0240X0.0020*%
%ADD371R,0.0230X0.0020*%
%ADD372R,0.0180X0.0010*%
%ADD373R,0.0228X0.0010*%
%ADD374R,0.0240X0.0010*%
%ADD375R,0.0240X0.0020*%
%ADD376R,0.0250X0.0020*%
%ADD377R,0.0250X0.0010*%
%ADD378R,0.0285X0.0020*%
%ADD379R,0.0280X0.0020*%
%ADD380R,0.0287X0.0010*%
%ADD381R,0.0290X0.0010*%
%ADD382R,0.0305X0.0010*%
%ADD383R,0.0304X0.0010*%
%ADD384R,0.0312X0.0010*%
%ADD385R,0.0321X0.0010*%
%ADD386R,0.0339X0.0010*%
%ADD387R,0.0348X0.0020*%
%ADD388R,0.0350X0.0020*%
%ADD389R,0.0367X0.0010*%
%ADD390R,0.0370X0.0010*%
%ADD391R,0.0395X0.0010*%
%ADD392R,0.0390X0.0010*%
%ADD393R,0.0424X0.0010*%
%ADD394R,0.0472X0.0010*%
%ADD395R,0.1111X0.0010*%
%ADD396R,0.1078X0.0010*%
%ADD397R,0.1047X0.0020*%
%ADD398R,0.1014X0.0010*%
%ADD399R,0.0982X0.0010*%
%ADD400R,0.0940X0.0010*%
%ADD401R,0.0908X0.0010*%
%ADD402R,0.0875X0.0010*%
%ADD403R,0.0823X0.0010*%
%ADD404R,0.0770X0.0020*%
%ADD405R,0.0730X0.0010*%
%ADD406R,0.0610X0.0010*%
%ADD407R,0.0270X0.0020*%
D22*
X45278Y39001D02*
Y38701D01*
X45078D01*
X44779Y38951D02*
X44829Y39001D01*
X44928D01*
X44978Y38951D01*
Y38751D01*
X44928Y38701D01*
X44829D01*
X44779Y38751D01*
X44679Y39001D02*
Y38701D01*
X44529D01*
X44479Y38751D01*
Y38951D01*
X44529Y39001D01*
X44679D01*
X44379Y38701D02*
X44279D01*
X44329D01*
Y39001D01*
X44379Y38951D01*
D25*
X36750Y31077D02*
X47450D01*
X36750Y38557D02*
X47450D01*
X43950Y28978D02*
X44450Y28478D01*
X40450Y28978D02*
X43950D01*
X39950Y28478D02*
X40450Y28978D01*
D42*
X36750Y40246D02*
X47498D01*
X36750Y28435D02*
Y40246D01*
Y28435D02*
X47498D01*
Y40246D01*
D43*
X40663Y31557D02*
D03*
D44*
X40658Y31569D02*
D03*
D45*
X40658Y31580D02*
D03*
X40278Y31774D02*
D03*
X37428Y32368D02*
D03*
D46*
X40658Y31591D02*
D03*
X37378Y31980D02*
D03*
X37258Y32231D02*
D03*
D47*
X40658Y31603D02*
D03*
X37358Y32025D02*
D03*
X40278Y32379D02*
D03*
D48*
X40658Y31614D02*
D03*
X38118Y32059D02*
D03*
X38928Y32288D02*
D03*
X40408Y32333D02*
D03*
D49*
X40658Y31626D02*
D03*
X40518Y32265D02*
D03*
D50*
X40658Y31637D02*
D03*
D51*
X40658Y31648D02*
D03*
D52*
X40665Y31660D02*
D03*
D53*
X40662Y31671D02*
D03*
D54*
X40657Y31683D02*
D03*
D55*
X40659Y31694D02*
D03*
D56*
X40665Y31706D02*
D03*
D57*
X40661Y31717D02*
D03*
D58*
X40657Y31728D02*
D03*
D59*
X40663Y31740D02*
D03*
D60*
X40664Y31751D02*
D03*
D61*
X41004Y31763D02*
D03*
D62*
X40313Y31763D02*
D03*
X40553Y32151D02*
D03*
D63*
X41040Y31774D02*
D03*
D64*
X41061Y31785D02*
D03*
D65*
X40248D02*
D03*
D66*
X41087Y31797D02*
D03*
D67*
X40233Y31797D02*
D03*
X40563Y32128D02*
D03*
X39073Y32265D02*
D03*
D68*
X41108Y31808D02*
D03*
D69*
X40208D02*
D03*
X37178Y32196D02*
D03*
D70*
X41129Y31820D02*
D03*
D71*
X40193Y31820D02*
D03*
D72*
X41144Y31831D02*
D03*
D73*
X40178Y31831D02*
D03*
X38768Y32082D02*
D03*
D74*
X41154Y31843D02*
D03*
D75*
X40158Y31843D02*
D03*
X40128Y31865D02*
D03*
X39138Y32082D02*
D03*
X38288Y32482D02*
D03*
D76*
X41170Y31854D02*
D03*
D77*
X40138D02*
D03*
X38768Y32493D02*
D03*
D78*
X41186Y31865D02*
D03*
D79*
X41202Y31877D02*
D03*
D80*
X40113Y31877D02*
D03*
X37373Y31945D02*
D03*
X39053Y31968D02*
D03*
X38043D02*
D03*
X37153Y32185D02*
D03*
X37903Y32482D02*
D03*
D81*
X41219Y31888D02*
D03*
X42441Y32493D02*
D03*
D82*
X40108Y31888D02*
D03*
X37908Y32105D02*
D03*
D83*
X41231Y31900D02*
D03*
D84*
X40093Y31900D02*
D03*
X37163Y32082D02*
D03*
X37893Y32470D02*
D03*
D85*
X41236Y31911D02*
D03*
X43737Y32014D02*
D03*
X42823Y32094D02*
D03*
X42435Y32094D02*
D03*
X44970Y32117D02*
D03*
X44981Y32128D02*
D03*
X44159Y32231D02*
D03*
X42424Y32482D02*
D03*
D86*
X40078Y31911D02*
D03*
X37898Y32117D02*
D03*
X37508Y32402D02*
D03*
X38308Y32470D02*
D03*
X38748Y32482D02*
D03*
D87*
X41253Y31922D02*
D03*
X43742Y32025D02*
D03*
X43777Y32071D02*
D03*
X43800Y32105D02*
D03*
X42418D02*
D03*
X44987Y32139D02*
D03*
X43822D02*
D03*
X43845Y32174D02*
D03*
X43868Y32208D02*
D03*
X43879Y32425D02*
D03*
X42852Y32459D02*
D03*
X42407D02*
D03*
X43822Y32493D02*
D03*
D88*
X40068Y31922D02*
D03*
X40038Y31957D02*
D03*
X37138Y32174D02*
D03*
D89*
X45900Y31934D02*
D03*
X45672Y32117D02*
D03*
X44485D02*
D03*
D90*
X44713Y31934D02*
D03*
D91*
X42629Y31934D02*
D03*
D92*
X41265D02*
D03*
X41276Y31945D02*
D03*
X43708Y31968D02*
D03*
X41288D02*
D03*
X43731Y32002D02*
D03*
X43754Y32037D02*
D03*
X43765Y32048D02*
D03*
Y32059D02*
D03*
X43788Y32082D02*
D03*
Y32094D02*
D03*
X43811Y32117D02*
D03*
X46174Y32128D02*
D03*
X43811D02*
D03*
X43834Y32162D02*
D03*
X43857Y32196D02*
D03*
X44165Y32219D02*
D03*
X43879Y32231D02*
D03*
X43937Y32356D02*
D03*
X43891Y32413D02*
D03*
X43845Y32470D02*
D03*
X42840D02*
D03*
X42418D02*
D03*
X43834Y32482D02*
D03*
D93*
X40063Y31934D02*
D03*
X40053Y31945D02*
D03*
X39163Y32094D02*
D03*
X37893Y32128D02*
D03*
X39163Y32231D02*
D03*
X37873Y32448D02*
D03*
X38733Y32470D02*
D03*
D94*
X39053Y31934D02*
D03*
X37603Y32128D02*
D03*
D95*
X37368Y31934D02*
D03*
X37098Y32482D02*
D03*
D96*
X45906Y31945D02*
D03*
X44719D02*
D03*
D97*
X43212D02*
D03*
X45369Y31968D02*
D03*
X44182D02*
D03*
X42024D02*
D03*
X45369Y31980D02*
D03*
X44182D02*
D03*
X42024D02*
D03*
X45369Y32002D02*
D03*
X44182D02*
D03*
X42024D02*
D03*
X45369Y32014D02*
D03*
X44182D02*
D03*
X42024D02*
D03*
X45369Y32037D02*
D03*
X44182D02*
D03*
X42024D02*
D03*
X45369Y32048D02*
D03*
X44182D02*
D03*
X42024D02*
D03*
X45369Y32059D02*
D03*
X44182D02*
D03*
X42024D02*
D03*
X41351D02*
D03*
X45369Y32082D02*
D03*
X44182D02*
D03*
X42024D02*
D03*
X41362D02*
D03*
X45369Y32094D02*
D03*
X44182D02*
D03*
X42024D02*
D03*
X45369Y32117D02*
D03*
X44182D02*
D03*
X42024D02*
D03*
X45369Y32128D02*
D03*
X44182D02*
D03*
X42024D02*
D03*
X41385D02*
D03*
X45369Y32151D02*
D03*
X44182D02*
D03*
X42024D02*
D03*
X41396D02*
D03*
X45369Y32162D02*
D03*
X44182D02*
D03*
X42024D02*
D03*
X41396D02*
D03*
X45369Y32185D02*
D03*
X42024D02*
D03*
X41408D02*
D03*
X45369Y32196D02*
D03*
X42024D02*
D03*
X45369Y32219D02*
D03*
X43371D02*
D03*
X42024D02*
D03*
X45369Y32231D02*
D03*
X45027D02*
D03*
X43371D02*
D03*
X42024D02*
D03*
X45369Y32254D02*
D03*
X43371D02*
D03*
X42024D02*
D03*
X45369Y32265D02*
D03*
X43371D02*
D03*
X42024D02*
D03*
X45369Y32288D02*
D03*
X43371D02*
D03*
X42024D02*
D03*
X45369Y32299D02*
D03*
X43371D02*
D03*
X42024D02*
D03*
X45369Y32322D02*
D03*
X43371D02*
D03*
X42024D02*
D03*
X45369Y32333D02*
D03*
X43371D02*
D03*
X42024D02*
D03*
X45369Y32356D02*
D03*
X44182D02*
D03*
X43371D02*
D03*
X42024D02*
D03*
X45369Y32368D02*
D03*
X44182D02*
D03*
X43371D02*
D03*
X42024D02*
D03*
X45369Y32391D02*
D03*
X44525D02*
D03*
X44182D02*
D03*
X43371D02*
D03*
X42024D02*
D03*
X45369Y32402D02*
D03*
X44525D02*
D03*
X44182D02*
D03*
X43371D02*
D03*
X42024D02*
D03*
X45723Y32413D02*
D03*
X45369D02*
D03*
X45015D02*
D03*
X44182D02*
D03*
X43371D02*
D03*
X45723Y32436D02*
D03*
X45369D02*
D03*
X44536D02*
D03*
X44182D02*
D03*
X43371D02*
D03*
X45723Y32448D02*
D03*
X45369D02*
D03*
X45004D02*
D03*
X44536D02*
D03*
X44182D02*
D03*
X43371D02*
D03*
X45369Y32470D02*
D03*
X44993D02*
D03*
X44547D02*
D03*
X44182D02*
D03*
X43371D02*
D03*
X46169Y32482D02*
D03*
X45369D02*
D03*
X44981D02*
D03*
X44182D02*
D03*
D98*
X42629Y31945D02*
D03*
X43714Y31980D02*
D03*
X43337Y32094D02*
D03*
X46157Y32117D02*
D03*
X42835Y32482D02*
D03*
D99*
X39053Y31945D02*
D03*
X39883Y32288D02*
D03*
Y32299D02*
D03*
X39873Y32356D02*
D03*
Y32368D02*
D03*
D100*
X38038Y31945D02*
D03*
D101*
X45900Y31957D02*
D03*
X44713D02*
D03*
X43252Y32025D02*
D03*
D102*
X45369Y31957D02*
D03*
X44182D02*
D03*
X42024D02*
D03*
X45369Y31991D02*
D03*
X44182D02*
D03*
X42024D02*
D03*
X45369Y32025D02*
D03*
X44182D02*
D03*
X42024D02*
D03*
X45369Y32071D02*
D03*
X44182D02*
D03*
X42024D02*
D03*
X45369Y32105D02*
D03*
X44182D02*
D03*
X42024D02*
D03*
X41373D02*
D03*
X45369Y32139D02*
D03*
X44182D02*
D03*
X42024D02*
D03*
X45369Y32174D02*
D03*
X44182D02*
D03*
X42024D02*
D03*
X45369Y32208D02*
D03*
X43371D02*
D03*
X42024D02*
D03*
X45369Y32242D02*
D03*
X45027D02*
D03*
X43371D02*
D03*
X42024D02*
D03*
X45369Y32276D02*
D03*
X43371D02*
D03*
X42024D02*
D03*
X45369Y32311D02*
D03*
X43371D02*
D03*
X42024D02*
D03*
X45369Y32345D02*
D03*
X44182D02*
D03*
X43371D02*
D03*
X42024D02*
D03*
X45369Y32379D02*
D03*
X44182D02*
D03*
X43371D02*
D03*
X42024D02*
D03*
X46203Y32425D02*
D03*
X45723D02*
D03*
X45369D02*
D03*
X44536D02*
D03*
X44182D02*
D03*
X43371D02*
D03*
X46191Y32459D02*
D03*
X45735D02*
D03*
X45369D02*
D03*
X44547D02*
D03*
X44182D02*
D03*
X43371D02*
D03*
X45369Y32493D02*
D03*
X44182D02*
D03*
D103*
X43702Y31957D02*
D03*
D104*
X43212Y31957D02*
D03*
D105*
X42629Y31957D02*
D03*
D106*
X41282D02*
D03*
X42869Y32425D02*
D03*
D107*
X39528Y31957D02*
D03*
X38718D02*
D03*
X39528Y31991D02*
D03*
X38718D02*
D03*
X39528Y32025D02*
D03*
X39528Y32071D02*
D03*
X39938Y32105D02*
D03*
X39528D02*
D03*
X39928Y32139D02*
D03*
X39528D02*
D03*
X38718D02*
D03*
X38328D02*
D03*
X37118D02*
D03*
X39918Y32174D02*
D03*
X39528D02*
D03*
X38718D02*
D03*
X38328D02*
D03*
X39528Y32208D02*
D03*
X38718D02*
D03*
X38328D02*
D03*
X39528Y32242D02*
D03*
X38718D02*
D03*
X38328D02*
D03*
X39528Y32276D02*
D03*
X38328D02*
D03*
X39528Y32311D02*
D03*
X38328D02*
D03*
X39528Y32345D02*
D03*
X38328D02*
D03*
X39528Y32379D02*
D03*
X38328D02*
D03*
X39528Y32425D02*
D03*
X38718D02*
D03*
X38328D02*
D03*
X39528Y32459D02*
D03*
Y32493D02*
D03*
D108*
X39048Y31957D02*
D03*
X38048D02*
D03*
X40008Y31991D02*
D03*
X40568Y32105D02*
D03*
X39168D02*
D03*
X37128D02*
D03*
X38728Y32459D02*
D03*
X38318D02*
D03*
D109*
X38338Y31957D02*
D03*
X39888Y32276D02*
D03*
X39878Y32311D02*
D03*
Y32345D02*
D03*
D110*
X37373Y31957D02*
D03*
D111*
X45900Y31968D02*
D03*
D112*
X44707D02*
D03*
D113*
X43223D02*
D03*
D114*
X42635D02*
D03*
D115*
X40028Y31968D02*
D03*
X40018Y31980D02*
D03*
X40008Y32002D02*
D03*
X39998Y32014D02*
D03*
X37148Y32094D02*
D03*
X39178Y32117D02*
D03*
X38728D02*
D03*
X37878Y32151D02*
D03*
X39168Y32219D02*
D03*
X37848Y32402D02*
D03*
X37518Y32413D02*
D03*
Y32482D02*
D03*
D116*
X39528Y31968D02*
D03*
X38718D02*
D03*
X38328D02*
D03*
X39528Y31980D02*
D03*
X38718D02*
D03*
X38328D02*
D03*
X39528Y32002D02*
D03*
X38718D02*
D03*
X39528Y32014D02*
D03*
X38718D02*
D03*
X39528Y32037D02*
D03*
Y32048D02*
D03*
Y32059D02*
D03*
X39958Y32082D02*
D03*
X39528D02*
D03*
X37538D02*
D03*
X39528Y32094D02*
D03*
X39938Y32117D02*
D03*
X39528D02*
D03*
X38328D02*
D03*
X39528Y32128D02*
D03*
X38718D02*
D03*
X38328D02*
D03*
X37118D02*
D03*
X39528Y32151D02*
D03*
X38718D02*
D03*
X38328D02*
D03*
X39528Y32162D02*
D03*
X38718D02*
D03*
X38328D02*
D03*
X39528Y32185D02*
D03*
X39178D02*
D03*
X38718D02*
D03*
X38328D02*
D03*
X37858D02*
D03*
X39528Y32196D02*
D03*
X39178D02*
D03*
X38718D02*
D03*
X38328D02*
D03*
X37858D02*
D03*
X39528Y32219D02*
D03*
X38718D02*
D03*
X38328D02*
D03*
X39528Y32231D02*
D03*
X38718D02*
D03*
X38328D02*
D03*
X39528Y32254D02*
D03*
X38718D02*
D03*
X38328D02*
D03*
X39528Y32265D02*
D03*
X38718D02*
D03*
X38328D02*
D03*
X39528Y32288D02*
D03*
X38328D02*
D03*
X37838D02*
D03*
X39528Y32299D02*
D03*
X38328D02*
D03*
X37838D02*
D03*
X39528Y32322D02*
D03*
X38328D02*
D03*
X39528Y32333D02*
D03*
X38328D02*
D03*
X39528Y32356D02*
D03*
X38328D02*
D03*
X39528Y32368D02*
D03*
X38328D02*
D03*
X39528Y32391D02*
D03*
X38328D02*
D03*
X39528Y32402D02*
D03*
X38718D02*
D03*
X38328D02*
D03*
X39528Y32413D02*
D03*
X38718D02*
D03*
X38328D02*
D03*
X37858D02*
D03*
X39528Y32436D02*
D03*
X38718D02*
D03*
X38328D02*
D03*
X39528Y32448D02*
D03*
X38328D02*
D03*
X39528Y32470D02*
D03*
Y32482D02*
D03*
D117*
X37378Y31968D02*
D03*
X37238Y32219D02*
D03*
D118*
X45895Y31980D02*
D03*
D119*
X44707Y31980D02*
D03*
X44034Y32254D02*
D03*
Y32265D02*
D03*
D120*
X43229Y31980D02*
D03*
D121*
X42629Y31980D02*
D03*
D122*
X41293Y31980D02*
D03*
X43360Y32117D02*
D03*
X42846Y32117D02*
D03*
X43360Y32128D02*
D03*
X42858D02*
D03*
X42401Y32128D02*
D03*
X46191Y32151D02*
D03*
Y32162D02*
D03*
X45004Y32162D02*
D03*
X42389Y32162D02*
D03*
X43851Y32185D02*
D03*
X44171Y32196D02*
D03*
X43874Y32219D02*
D03*
X43908Y32391D02*
D03*
X42013Y32413D02*
D03*
X43874Y32436D02*
D03*
X42858Y32448D02*
D03*
X42401Y32448D02*
D03*
D123*
X39053Y31980D02*
D03*
X38043D02*
D03*
X37943Y32094D02*
D03*
X38773Y32391D02*
D03*
D124*
X45895Y31991D02*
D03*
D125*
X44707Y31991D02*
D03*
X42629Y32025D02*
D03*
D126*
X43725Y31991D02*
D03*
X42835Y32105D02*
D03*
D127*
X43240Y31991D02*
D03*
D128*
X42629D02*
D03*
D129*
X41305Y31991D02*
D03*
X43349Y32105D02*
D03*
X46180Y32139D02*
D03*
X42858Y32139D02*
D03*
X42401Y32139D02*
D03*
X44171Y32208D02*
D03*
X43942Y32345D02*
D03*
X43919Y32379D02*
D03*
X42389Y32425D02*
D03*
X43851Y32459D02*
D03*
X45758Y32493D02*
D03*
D130*
X39053Y31991D02*
D03*
X39953Y32493D02*
D03*
D131*
X38153Y31991D02*
D03*
D132*
X37383D02*
D03*
D133*
X45900Y32002D02*
D03*
X44713D02*
D03*
D134*
X43246Y32002D02*
D03*
Y32014D02*
D03*
D135*
X42629Y32002D02*
D03*
X44045Y32288D02*
D03*
Y32299D02*
D03*
D136*
X41316Y32002D02*
D03*
X42412Y32117D02*
D03*
X44993Y32151D02*
D03*
X43828D02*
D03*
X42869Y32162D02*
D03*
X42378Y32196D02*
D03*
X43931Y32368D02*
D03*
X43897Y32402D02*
D03*
X43862Y32448D02*
D03*
D137*
X39043Y32002D02*
D03*
D138*
X38148D02*
D03*
D139*
X37368D02*
D03*
D140*
X45912Y32014D02*
D03*
D141*
X44724Y32014D02*
D03*
D142*
X42629Y32014D02*
D03*
D143*
X41322D02*
D03*
X41345Y32048D02*
D03*
X43366Y32151D02*
D03*
X42863D02*
D03*
X43366Y32162D02*
D03*
X44176Y32185D02*
D03*
X43366D02*
D03*
X42875Y32185D02*
D03*
X42384Y32185D02*
D03*
X45021Y32196D02*
D03*
X43366D02*
D03*
X42875Y32196D02*
D03*
X45021Y32219D02*
D03*
X42372Y32219D02*
D03*
Y32231D02*
D03*
Y32254D02*
D03*
Y32265D02*
D03*
Y32288D02*
D03*
Y32299D02*
D03*
Y32322D02*
D03*
Y32333D02*
D03*
Y32356D02*
D03*
Y32368D02*
D03*
X42875Y32391D02*
D03*
X42384Y32391D02*
D03*
X42875Y32402D02*
D03*
X42384Y32402D02*
D03*
X42875Y32413D02*
D03*
X42384Y32413D02*
D03*
X42863Y32436D02*
D03*
X45740Y32470D02*
D03*
Y32482D02*
D03*
X43366Y32482D02*
D03*
D144*
X39043Y32014D02*
D03*
D145*
X38143D02*
D03*
X37353Y32037D02*
D03*
X40353Y32356D02*
D03*
D146*
X37363Y32014D02*
D03*
X40543Y32196D02*
D03*
X38893Y32333D02*
D03*
X40063Y32436D02*
D03*
D147*
X45917Y32025D02*
D03*
X44730D02*
D03*
D148*
X41333Y32025D02*
D03*
X45010Y32174D02*
D03*
X46209Y32208D02*
D03*
X42886D02*
D03*
Y32242D02*
D03*
Y32276D02*
D03*
Y32311D02*
D03*
Y32345D02*
D03*
Y32379D02*
D03*
X44976Y32493D02*
D03*
D149*
X39993Y32025D02*
D03*
X38323Y32105D02*
D03*
X39183Y32139D02*
D03*
Y32174D02*
D03*
X37863D02*
D03*
X39173Y32208D02*
D03*
X37843D02*
D03*
Y32242D02*
D03*
Y32276D02*
D03*
Y32311D02*
D03*
Y32345D02*
D03*
Y32379D02*
D03*
X37863Y32425D02*
D03*
X37523D02*
D03*
D150*
X38928Y32025D02*
D03*
X38928Y32276D02*
D03*
D151*
X38133Y32025D02*
D03*
X37343Y32071D02*
D03*
X40533Y32208D02*
D03*
X38913Y32311D02*
D03*
X40083Y32425D02*
D03*
D152*
X45923Y32037D02*
D03*
X44736D02*
D03*
D153*
X43257D02*
D03*
Y32048D02*
D03*
Y32059D02*
D03*
D154*
X42629Y32037D02*
D03*
D155*
X41333D02*
D03*
X41368Y32094D02*
D03*
X42395Y32151D02*
D03*
X46209Y32185D02*
D03*
X45010D02*
D03*
X46209Y32196D02*
D03*
X42886Y32219D02*
D03*
Y32231D02*
D03*
Y32254D02*
D03*
Y32265D02*
D03*
Y32288D02*
D03*
Y32299D02*
D03*
Y32322D02*
D03*
Y32333D02*
D03*
Y32356D02*
D03*
Y32368D02*
D03*
X42395Y32436D02*
D03*
X44553Y32482D02*
D03*
D156*
X39983Y32037D02*
D03*
Y32048D02*
D03*
X39973Y32059D02*
D03*
X37123Y32117D02*
D03*
X39183Y32128D02*
D03*
Y32151D02*
D03*
X37123D02*
D03*
X39183Y32162D02*
D03*
X37863D02*
D03*
X37123D02*
D03*
X37843Y32219D02*
D03*
Y32231D02*
D03*
Y32254D02*
D03*
Y32265D02*
D03*
Y32322D02*
D03*
Y32333D02*
D03*
Y32356D02*
D03*
Y32368D02*
D03*
Y32391D02*
D03*
X37863Y32436D02*
D03*
X38723Y32448D02*
D03*
X37523Y32470D02*
D03*
D157*
X38933Y32037D02*
D03*
X38113Y32082D02*
D03*
X40523Y32231D02*
D03*
X40103Y32413D02*
D03*
D158*
X38133Y32037D02*
D03*
X37343Y32059D02*
D03*
D159*
X45929Y32048D02*
D03*
D160*
X44741Y32048D02*
D03*
D161*
X42629Y32048D02*
D03*
Y32059D02*
D03*
D162*
X38943Y32048D02*
D03*
Y32059D02*
D03*
X40433Y32322D02*
D03*
D163*
X38123Y32048D02*
D03*
X38923Y32299D02*
D03*
D164*
X37348Y32048D02*
D03*
X38908Y32322D02*
D03*
D165*
X45935Y32059D02*
D03*
X44747D02*
D03*
D166*
X45940Y32071D02*
D03*
X44753D02*
D03*
D167*
X43263Y32071D02*
D03*
D168*
X42629Y32071D02*
D03*
D169*
X41356Y32071D02*
D03*
X43366Y32139D02*
D03*
X46197Y32174D02*
D03*
X43366D02*
D03*
X42875Y32174D02*
D03*
X42384Y32174D02*
D03*
X45021Y32208D02*
D03*
X42372Y32208D02*
D03*
Y32242D02*
D03*
Y32276D02*
D03*
Y32311D02*
D03*
Y32345D02*
D03*
Y32379D02*
D03*
X46163Y32493D02*
D03*
X44564Y32493D02*
D03*
D170*
X39963Y32071D02*
D03*
X39903Y32208D02*
D03*
X37533Y32459D02*
D03*
D171*
X38948Y32071D02*
D03*
D172*
X38113D02*
D03*
D173*
X45946Y32082D02*
D03*
D174*
X44753Y32082D02*
D03*
D175*
X43263Y32082D02*
D03*
D176*
X42801Y32082D02*
D03*
D177*
X42458Y32082D02*
D03*
D178*
X46117Y32094D02*
D03*
X44930D02*
D03*
D179*
X45712Y32094D02*
D03*
X44525D02*
D03*
X41442Y32322D02*
D03*
Y32333D02*
D03*
Y32356D02*
D03*
D180*
X43080Y32094D02*
D03*
D181*
X40578Y32094D02*
D03*
D182*
X39953D02*
D03*
X39933Y32128D02*
D03*
X39923Y32151D02*
D03*
Y32162D02*
D03*
X39913Y32185D02*
D03*
Y32196D02*
D03*
X39903Y32219D02*
D03*
Y32231D02*
D03*
X37533Y32436D02*
D03*
Y32448D02*
D03*
D183*
X38748Y32094D02*
D03*
X38298D02*
D03*
D184*
X37558D02*
D03*
D185*
X46146Y32105D02*
D03*
X44958D02*
D03*
X41990Y32425D02*
D03*
D186*
X45689Y32105D02*
D03*
X44502D02*
D03*
D187*
X43069D02*
D03*
D188*
X38733Y32105D02*
D03*
X37883Y32139D02*
D03*
X37883Y32459D02*
D03*
X37503Y32493D02*
D03*
D189*
X37578Y32105D02*
D03*
D190*
X41379Y32117D02*
D03*
X41413Y32196D02*
D03*
Y32219D02*
D03*
X41425Y32231D02*
D03*
Y32254D02*
D03*
X41436Y32288D02*
D03*
Y32299D02*
D03*
X41448Y32368D02*
D03*
X45021Y32391D02*
D03*
X41448D02*
D03*
X46209Y32402D02*
D03*
X45021Y32402D02*
D03*
X41448D02*
D03*
X46209Y32413D02*
D03*
X44530D02*
D03*
X41448Y32413D02*
D03*
X46197Y32436D02*
D03*
X41448D02*
D03*
X46197Y32448D02*
D03*
X41448D02*
D03*
Y32470D02*
D03*
Y32482D02*
D03*
D191*
X40573Y32117D02*
D03*
X39123Y32254D02*
D03*
X37483Y32391D02*
D03*
D192*
X37593Y32117D02*
D03*
D193*
X45661Y32128D02*
D03*
D194*
X44473Y32128D02*
D03*
D195*
X45649Y32139D02*
D03*
D196*
X44462Y32139D02*
D03*
D197*
X41390D02*
D03*
X41413Y32208D02*
D03*
X41425Y32242D02*
D03*
X41436Y32276D02*
D03*
Y32311D02*
D03*
X41448Y32379D02*
D03*
X41448Y32425D02*
D03*
X44998Y32459D02*
D03*
X41448Y32459D02*
D03*
Y32493D02*
D03*
D198*
X40553Y32139D02*
D03*
D199*
X37618D02*
D03*
D200*
X45638Y32151D02*
D03*
X44450D02*
D03*
D201*
X37628Y32151D02*
D03*
D202*
X45638Y32162D02*
D03*
D203*
X44445Y32162D02*
D03*
D204*
X40543D02*
D03*
D205*
X37633D02*
D03*
X37053Y32436D02*
D03*
D206*
X41402Y32174D02*
D03*
X45010Y32425D02*
D03*
D207*
X40543Y32174D02*
D03*
D208*
X40543Y32185D02*
D03*
X37323Y32288D02*
D03*
X37333Y32299D02*
D03*
D209*
X37208Y32208D02*
D03*
D210*
X46214Y32219D02*
D03*
Y32231D02*
D03*
Y32391D02*
D03*
X46180Y32470D02*
D03*
D211*
X40528Y32219D02*
D03*
D212*
X46214Y32242D02*
D03*
D213*
X44028D02*
D03*
D214*
X40523Y32242D02*
D03*
X38103Y32493D02*
D03*
D215*
X39893Y32242D02*
D03*
X39873Y32379D02*
D03*
D216*
X39143Y32242D02*
D03*
D217*
X37278D02*
D03*
D218*
X45969Y32254D02*
D03*
D219*
X44776Y32254D02*
D03*
Y32265D02*
D03*
Y32288D02*
D03*
Y32299D02*
D03*
Y32322D02*
D03*
Y32333D02*
D03*
Y32356D02*
D03*
Y32368D02*
D03*
D220*
X40518Y32254D02*
D03*
D221*
X39888D02*
D03*
Y32265D02*
D03*
X39878Y32322D02*
D03*
Y32333D02*
D03*
D222*
X37288Y32254D02*
D03*
X37298Y32265D02*
D03*
X37368Y32333D02*
D03*
X40038Y32448D02*
D03*
D223*
X45963Y32265D02*
D03*
Y32288D02*
D03*
Y32299D02*
D03*
Y32322D02*
D03*
Y32333D02*
D03*
Y32356D02*
D03*
Y32368D02*
D03*
D224*
X41430Y32265D02*
D03*
D225*
X45963Y32276D02*
D03*
Y32311D02*
D03*
Y32345D02*
D03*
Y32379D02*
D03*
D226*
X44776Y32276D02*
D03*
Y32311D02*
D03*
Y32345D02*
D03*
Y32379D02*
D03*
D227*
X44039Y32276D02*
D03*
X41881Y32459D02*
D03*
Y32493D02*
D03*
D228*
X40508Y32276D02*
D03*
D229*
X37313D02*
D03*
X37343Y32311D02*
D03*
X38883Y32345D02*
D03*
D230*
X40498Y32288D02*
D03*
X40488Y32299D02*
D03*
X40148Y32391D02*
D03*
D231*
X44051Y32311D02*
D03*
D232*
X40463Y32311D02*
D03*
D233*
X44056Y32322D02*
D03*
Y32333D02*
D03*
D234*
X37353Y32322D02*
D03*
X38873Y32356D02*
D03*
D235*
X41442Y32345D02*
D03*
D236*
X40378Y32345D02*
D03*
D237*
X37383D02*
D03*
D238*
X37403Y32356D02*
D03*
D239*
X40328Y32368D02*
D03*
D240*
X38848D02*
D03*
D241*
X38823Y32379D02*
D03*
D242*
X37458D02*
D03*
D243*
X45718Y32391D02*
D03*
Y32402D02*
D03*
X45010Y32436D02*
D03*
D244*
X40123Y32402D02*
D03*
D245*
X41647Y32425D02*
D03*
D246*
X41881Y32436D02*
D03*
Y32448D02*
D03*
Y32470D02*
D03*
Y32482D02*
D03*
D247*
X37063Y32448D02*
D03*
D248*
X40018Y32459D02*
D03*
D249*
X39213D02*
D03*
D250*
X37078D02*
D03*
D251*
X39998Y32470D02*
D03*
D252*
X39193D02*
D03*
D253*
X37088D02*
D03*
X39178Y32482D02*
D03*
D254*
X39978D02*
D03*
D255*
X43314Y32493D02*
D03*
D256*
X42818Y32493D02*
D03*
D257*
X39153Y32493D02*
D03*
D258*
X37118D02*
D03*
D259*
X46146Y32510D02*
D03*
X43817D02*
D03*
D260*
X45763D02*
D03*
X44576D02*
D03*
D261*
X45369D02*
D03*
X44182D02*
D03*
D262*
X44958D02*
D03*
D263*
X43314D02*
D03*
D264*
X42629D02*
D03*
D265*
X41881Y32510D02*
D03*
D266*
X41448Y32510D02*
D03*
D267*
X39933Y32510D02*
D03*
X37473D02*
D03*
D268*
X39528D02*
D03*
D269*
X38923D02*
D03*
D270*
X38103D02*
D03*
D271*
X37158D02*
D03*
D272*
X46129Y32525D02*
D03*
X44930Y32525D02*
D03*
X41219Y32985D02*
D03*
D273*
X45792Y32525D02*
D03*
X44604D02*
D03*
D274*
X45369D02*
D03*
X44182D02*
D03*
X45369Y32535D02*
D03*
X44182D02*
D03*
X45369Y32545D02*
D03*
X44182D02*
D03*
X45369Y32555D02*
D03*
X44182D02*
D03*
X42024D02*
D03*
X45369Y32565D02*
D03*
X44182D02*
D03*
X42024D02*
D03*
X45369Y32575D02*
D03*
X44182D02*
D03*
X42024D02*
D03*
X45369Y32605D02*
D03*
X44182D02*
D03*
X42024D02*
D03*
X45369Y32615D02*
D03*
X44182D02*
D03*
X42024D02*
D03*
X45369Y32625D02*
D03*
X44182D02*
D03*
X42024D02*
D03*
X45369Y32635D02*
D03*
X44182D02*
D03*
X45369Y32645D02*
D03*
X44182D02*
D03*
X43371D02*
D03*
X45369Y32655D02*
D03*
X44182D02*
D03*
X43371D02*
D03*
X45369Y32685D02*
D03*
X44182D02*
D03*
X43371D02*
D03*
X45369Y32695D02*
D03*
X44182D02*
D03*
X43371D02*
D03*
X45369Y32705D02*
D03*
X44182D02*
D03*
X43371D02*
D03*
X45369Y32715D02*
D03*
X44182D02*
D03*
X43371D02*
D03*
X45369Y32725D02*
D03*
X44182D02*
D03*
X43371D02*
D03*
X41396D02*
D03*
X45369Y32735D02*
D03*
X44182D02*
D03*
X43371D02*
D03*
X45369Y32765D02*
D03*
X44182D02*
D03*
X43371D02*
D03*
X41385D02*
D03*
X45369Y32775D02*
D03*
X44182D02*
D03*
X43371D02*
D03*
X41373D02*
D03*
X45369Y32785D02*
D03*
X44182D02*
D03*
X43371D02*
D03*
X41373D02*
D03*
X45369Y32795D02*
D03*
X44182D02*
D03*
X43371D02*
D03*
X41362D02*
D03*
X45369Y32805D02*
D03*
X44182D02*
D03*
X43371D02*
D03*
X41362D02*
D03*
X45369Y32815D02*
D03*
X44182D02*
D03*
X43371D02*
D03*
X45369Y32845D02*
D03*
X44182D02*
D03*
X45369Y32855D02*
D03*
X44182D02*
D03*
X45369Y32865D02*
D03*
X44182D02*
D03*
X45369Y32875D02*
D03*
X44182D02*
D03*
X45369Y32885D02*
D03*
X44182D02*
D03*
X45369Y32895D02*
D03*
X44182D02*
D03*
D275*
X43811Y32525D02*
D03*
X43800Y32535D02*
D03*
X43788Y32545D02*
D03*
X43777Y32555D02*
D03*
X43765Y32565D02*
D03*
X41756D02*
D03*
X43765Y32575D02*
D03*
X43742Y32605D02*
D03*
X43731Y32615D02*
D03*
X41288Y32925D02*
D03*
X41276Y32935D02*
D03*
X41265Y32945D02*
D03*
D276*
X43314Y32525D02*
D03*
Y32535D02*
D03*
Y32545D02*
D03*
Y32555D02*
D03*
Y32565D02*
D03*
Y32575D02*
D03*
Y32605D02*
D03*
Y32615D02*
D03*
Y32625D02*
D03*
D277*
X42629Y32525D02*
D03*
D278*
X41881Y32525D02*
D03*
Y32535D02*
D03*
Y32545D02*
D03*
X43309Y32635D02*
D03*
D279*
X41448Y32525D02*
D03*
X41436Y32575D02*
D03*
Y32605D02*
D03*
X42018Y32635D02*
D03*
X41425Y32635D02*
D03*
Y32645D02*
D03*
Y32655D02*
D03*
X41413Y32685D02*
D03*
Y32695D02*
D03*
X41390Y32735D02*
D03*
D280*
X39913Y32525D02*
D03*
X40813Y32615D02*
D03*
X40083Y32975D02*
D03*
X40093Y32985D02*
D03*
D281*
X39528Y32525D02*
D03*
Y32535D02*
D03*
Y32545D02*
D03*
Y32555D02*
D03*
Y32565D02*
D03*
Y32575D02*
D03*
X38328D02*
D03*
X40838Y32605D02*
D03*
X39528D02*
D03*
X38328D02*
D03*
X39528Y32615D02*
D03*
X38328D02*
D03*
X39528Y32625D02*
D03*
X38328D02*
D03*
X39528Y32635D02*
D03*
X38328D02*
D03*
X37998D02*
D03*
X39528Y32645D02*
D03*
X38328D02*
D03*
X39528Y32655D02*
D03*
X38328D02*
D03*
X39908Y32685D02*
D03*
X39528D02*
D03*
X38328D02*
D03*
X39528Y32695D02*
D03*
X38328D02*
D03*
X39528Y32705D02*
D03*
X38328D02*
D03*
X39918Y32715D02*
D03*
X39528D02*
D03*
X38328D02*
D03*
X39528Y32725D02*
D03*
X38328D02*
D03*
X39928Y32735D02*
D03*
X39528D02*
D03*
X38328D02*
D03*
X39938Y32765D02*
D03*
X39528D02*
D03*
X38328D02*
D03*
X39938Y32775D02*
D03*
X39528D02*
D03*
X38328D02*
D03*
X39528Y32785D02*
D03*
X38328D02*
D03*
X39528Y32795D02*
D03*
X38328D02*
D03*
X39958Y32805D02*
D03*
X39528D02*
D03*
X38328D02*
D03*
X39528Y32815D02*
D03*
X38328D02*
D03*
X39528Y32845D02*
D03*
X38328D02*
D03*
X39528Y32855D02*
D03*
X38328D02*
D03*
X39528Y32865D02*
D03*
X38328D02*
D03*
X39528Y32875D02*
D03*
X38328D02*
D03*
X39528Y32885D02*
D03*
X38328D02*
D03*
X39528Y32895D02*
D03*
X38328D02*
D03*
D282*
X38933Y32525D02*
D03*
Y32535D02*
D03*
D283*
X38103Y32525D02*
D03*
X40663Y33265D02*
D03*
D284*
X37328Y32525D02*
D03*
Y32535D02*
D03*
X38938Y32545D02*
D03*
Y32555D02*
D03*
D285*
X45957Y32535D02*
D03*
D286*
X44764Y32535D02*
D03*
X42629Y32535D02*
D03*
D287*
X41442D02*
D03*
Y32545D02*
D03*
Y32555D02*
D03*
Y32565D02*
D03*
X41727Y32605D02*
D03*
D288*
X39893Y32535D02*
D03*
X39983Y32845D02*
D03*
Y32855D02*
D03*
X39993Y32865D02*
D03*
D289*
X38108Y32535D02*
D03*
D290*
X45952Y32545D02*
D03*
X42629D02*
D03*
D291*
X44764D02*
D03*
D292*
X40933Y32545D02*
D03*
D293*
X39878D02*
D03*
Y32555D02*
D03*
Y32565D02*
D03*
X39888Y32615D02*
D03*
Y32625D02*
D03*
Y32635D02*
D03*
D294*
X38113Y32545D02*
D03*
Y32555D02*
D03*
D295*
X37323Y32545D02*
D03*
X38943Y32565D02*
D03*
D296*
X45952Y32555D02*
D03*
X42629D02*
D03*
D297*
X44764D02*
D03*
D298*
X41762Y32555D02*
D03*
X41259Y32955D02*
D03*
X41236Y32975D02*
D03*
D299*
X40923Y32555D02*
D03*
D300*
X37318D02*
D03*
X38948Y32575D02*
D03*
X40658Y33285D02*
D03*
D301*
X45952Y32565D02*
D03*
D302*
X44759D02*
D03*
D303*
X42629Y32565D02*
D03*
D304*
X40898Y32565D02*
D03*
X40658Y32855D02*
D03*
D305*
X38118Y32565D02*
D03*
D306*
X37313D02*
D03*
D307*
X45952Y32575D02*
D03*
X44753D02*
D03*
X42629D02*
D03*
D308*
X41744Y32575D02*
D03*
X41356Y32815D02*
D03*
X41345Y32845D02*
D03*
X41311Y32885D02*
D03*
D309*
X40873Y32575D02*
D03*
D310*
X39883D02*
D03*
Y32605D02*
D03*
D311*
X38008Y32575D02*
D03*
X40748Y32645D02*
D03*
X40698Y32765D02*
D03*
D312*
X37303Y32575D02*
D03*
D313*
X45946Y32590D02*
D03*
D314*
X45369Y32590D02*
D03*
X44182D02*
D03*
X42024D02*
D03*
X41739D02*
D03*
X45369Y32670D02*
D03*
X44182D02*
D03*
X43371D02*
D03*
X45369Y32750D02*
D03*
X44182D02*
D03*
X43371D02*
D03*
X41385D02*
D03*
X45369Y32830D02*
D03*
X44182D02*
D03*
X43371D02*
D03*
D315*
X44759Y32590D02*
D03*
D316*
X43754D02*
D03*
D317*
X43314D02*
D03*
D318*
X42629D02*
D03*
D319*
X41436D02*
D03*
X41413Y32670D02*
D03*
D320*
X40853Y32590D02*
D03*
X39883D02*
D03*
D321*
X39528D02*
D03*
X38328D02*
D03*
X39528Y32670D02*
D03*
X38328D02*
D03*
X39928Y32750D02*
D03*
X39528D02*
D03*
X38328D02*
D03*
X39528Y32830D02*
D03*
X38328D02*
D03*
D322*
X38953Y32590D02*
D03*
D323*
X38008D02*
D03*
D324*
X37293D02*
D03*
D325*
X45946Y32605D02*
D03*
X44759D02*
D03*
D326*
X42629D02*
D03*
D327*
X38958Y32605D02*
D03*
D328*
X38008D02*
D03*
X40198Y33065D02*
D03*
D329*
X37288Y32605D02*
D03*
D330*
X45946Y32615D02*
D03*
D331*
X44759Y32615D02*
D03*
D332*
X42629D02*
D03*
D333*
X41716Y32615D02*
D03*
D334*
X41430Y32615D02*
D03*
Y32625D02*
D03*
D335*
X38973Y32615D02*
D03*
D336*
X38003D02*
D03*
X40683Y32805D02*
D03*
X40143Y33035D02*
D03*
D337*
X37283Y32615D02*
D03*
X40693Y32705D02*
D03*
X40333Y33125D02*
D03*
D338*
X45946Y32625D02*
D03*
D339*
X44753Y32625D02*
D03*
X42629D02*
D03*
D340*
X43725D02*
D03*
X41248Y32965D02*
D03*
D341*
X41704Y32625D02*
D03*
D342*
X40788Y32625D02*
D03*
X40168Y33045D02*
D03*
D343*
X38983Y32625D02*
D03*
X40693Y32685D02*
D03*
D344*
X37998Y32625D02*
D03*
X40038Y32935D02*
D03*
X40068Y32955D02*
D03*
X40078Y32965D02*
D03*
D345*
X37283Y32625D02*
D03*
X38973Y32635D02*
D03*
X40293Y33115D02*
D03*
D346*
X45940Y32635D02*
D03*
X44753Y32635D02*
D03*
D347*
X43720Y32635D02*
D03*
D348*
X42629Y32635D02*
D03*
D349*
X41682Y32635D02*
D03*
D350*
X40768D02*
D03*
X40688Y32785D02*
D03*
D351*
X37293Y32635D02*
D03*
X40683Y32795D02*
D03*
X40183Y33055D02*
D03*
D352*
X45940Y32645D02*
D03*
X44753Y32645D02*
D03*
X42629D02*
D03*
X41328Y32865D02*
D03*
X41305Y32895D02*
D03*
D353*
X39903Y32645D02*
D03*
Y32655D02*
D03*
X39913Y32695D02*
D03*
Y32705D02*
D03*
X39923Y32725D02*
D03*
X39953Y32785D02*
D03*
Y32795D02*
D03*
X39963Y32815D02*
D03*
D354*
X38968Y32645D02*
D03*
D355*
X37998D02*
D03*
D356*
X37288D02*
D03*
X39998Y32875D02*
D03*
X40008Y32885D02*
D03*
X40018Y32895D02*
D03*
X40028Y32925D02*
D03*
D357*
X45940Y32655D02*
D03*
X44753D02*
D03*
X42629D02*
D03*
D358*
X40728Y32655D02*
D03*
D359*
X40698Y32670D02*
D03*
D360*
X39903D02*
D03*
D361*
X40698Y32695D02*
D03*
X40658Y33295D02*
D03*
D362*
X41402Y32705D02*
D03*
Y32715D02*
D03*
D363*
X40698Y32715D02*
D03*
D364*
X40693Y32725D02*
D03*
D365*
X40698Y32735D02*
D03*
D366*
Y32750D02*
D03*
D367*
X40688Y32775D02*
D03*
D368*
X40678Y32815D02*
D03*
D369*
X41345Y32830D02*
D03*
D370*
X40668Y32830D02*
D03*
D371*
X39973D02*
D03*
D372*
X40668Y32845D02*
D03*
D373*
X41333Y32855D02*
D03*
D374*
X41316Y32875D02*
D03*
D375*
X41293Y32910D02*
D03*
D376*
X40023Y32910D02*
D03*
D377*
X40053Y32945D02*
D03*
D378*
X41213Y33000D02*
D03*
D379*
X40108Y33000D02*
D03*
D380*
X41202Y33015D02*
D03*
D381*
X40123Y33015D02*
D03*
X40133Y33025D02*
D03*
D382*
X41181Y33025D02*
D03*
D383*
X41170Y33035D02*
D03*
D384*
X41154Y33045D02*
D03*
D385*
X41139Y33055D02*
D03*
D386*
X41118Y33065D02*
D03*
D387*
X41102Y33080D02*
D03*
D388*
X40213Y33080D02*
D03*
D389*
X41082Y33095D02*
D03*
D390*
X40233Y33095D02*
D03*
D391*
X41056Y33105D02*
D03*
D392*
X40253D02*
D03*
X40653Y33305D02*
D03*
D393*
X41030Y33115D02*
D03*
D394*
X40994Y33125D02*
D03*
D395*
X40664Y33135D02*
D03*
D396*
X40657Y33145D02*
D03*
D397*
X40662Y33160D02*
D03*
D398*
X40655Y33175D02*
D03*
D399*
X40659Y33185D02*
D03*
D400*
X40658Y33195D02*
D03*
D401*
X40662Y33205D02*
D03*
D402*
X40656Y33215D02*
D03*
D403*
X40660Y33225D02*
D03*
D404*
X40653Y33240D02*
D03*
D405*
Y33255D02*
D03*
D406*
Y33275D02*
D03*
D407*
Y33320D02*
D03*
M02*
