G04 Layer_Color=8421504*
%FSLAX24Y24*%
%MOIN*%
G70*
G01*
G75*
%ADD10R,0.0280X0.0360*%
%ADD11R,0.0600X0.0520*%
%ADD12R,0.0520X0.0600*%
%ADD13R,0.0710X0.0880*%
%ADD14O,0.0650X0.0217*%
%ADD15O,0.0217X0.0650*%
%ADD16R,0.0240X0.0870*%
D10*
X37414Y33701D02*
D03*
X37050D02*
D03*
X37424Y34203D02*
D03*
X37060D02*
D03*
D11*
X42157Y35988D02*
D03*
Y36742D02*
D03*
X46163Y30988D02*
D03*
Y31742D02*
D03*
X45248Y30988D02*
D03*
Y31742D02*
D03*
X43171Y30968D02*
D03*
Y31722D02*
D03*
X44293Y31738D02*
D03*
Y30984D02*
D03*
X42167Y35006D02*
D03*
Y34252D02*
D03*
X47167Y31008D02*
D03*
Y31762D02*
D03*
D12*
X38855Y33898D02*
D03*
X39609D02*
D03*
X45244Y37844D02*
D03*
X44490D02*
D03*
X42564Y38661D02*
D03*
X43319D02*
D03*
X40429Y33898D02*
D03*
X41183D02*
D03*
X46177Y37854D02*
D03*
X46931D02*
D03*
X42564Y37726D02*
D03*
X43319D02*
D03*
D13*
X41649Y32362D02*
D03*
X40494D02*
D03*
X41649Y30827D02*
D03*
X40494D02*
D03*
D14*
X40759Y35591D02*
D03*
Y35906D02*
D03*
Y36220D02*
D03*
Y36535D02*
D03*
Y36850D02*
D03*
Y37165D02*
D03*
Y37480D02*
D03*
Y37795D02*
D03*
X37452D02*
D03*
Y37480D02*
D03*
Y37165D02*
D03*
Y36850D02*
D03*
Y36535D02*
D03*
Y36220D02*
D03*
Y35906D02*
D03*
Y35591D02*
D03*
D15*
X40208Y38346D02*
D03*
X39893D02*
D03*
X39578D02*
D03*
X39263D02*
D03*
X38948D02*
D03*
X38633D02*
D03*
X38319D02*
D03*
X38004D02*
D03*
Y35039D02*
D03*
X38319D02*
D03*
X38633D02*
D03*
X38948D02*
D03*
X39263D02*
D03*
X39578D02*
D03*
X39893D02*
D03*
X40208D02*
D03*
D16*
X37618Y30692D02*
D03*
X38118D02*
D03*
X39118D02*
D03*
X37618Y32746D02*
D03*
X38118D02*
D03*
X39118D02*
D03*
X38618Y30692D02*
D03*
Y32746D02*
D03*
M02*
