G04 Layer_Physical_Order=1*
G04 Layer_Color=255*
%FSLAX24Y24*%
%MOIN*%
G70*
G01*
G75*
%ADD10R,0.0280X0.0360*%
%ADD11R,0.0600X0.0520*%
%ADD12R,0.0520X0.0600*%
%ADD13R,0.0710X0.0880*%
%ADD14O,0.0650X0.0217*%
%ADD15O,0.0217X0.0650*%
%ADD16R,0.0240X0.0870*%
%ADD17C,0.0100*%
%ADD18C,0.0700*%
%ADD19C,0.0984*%
%ADD20O,0.0480X0.0960*%
%ADD21C,0.0380*%
D10*
X37414Y33701D02*
D03*
X37050D02*
D03*
X37424Y34203D02*
D03*
X37060D02*
D03*
D11*
X42157Y35988D02*
D03*
Y36742D02*
D03*
X46163Y30988D02*
D03*
Y31742D02*
D03*
X45248Y30988D02*
D03*
Y31742D02*
D03*
X43171Y30968D02*
D03*
Y31722D02*
D03*
X44293Y31738D02*
D03*
Y30984D02*
D03*
X42167Y35006D02*
D03*
Y34252D02*
D03*
X47167Y31008D02*
D03*
Y31762D02*
D03*
D12*
X38855Y33898D02*
D03*
X39609D02*
D03*
X45244Y37844D02*
D03*
X44490D02*
D03*
X42564Y38661D02*
D03*
X43319D02*
D03*
X40429Y33898D02*
D03*
X41183D02*
D03*
X46177Y37854D02*
D03*
X46931D02*
D03*
X42564Y37726D02*
D03*
X43319D02*
D03*
D13*
X41649Y32362D02*
D03*
X40494D02*
D03*
X41649Y30827D02*
D03*
X40494D02*
D03*
D14*
X40759Y35591D02*
D03*
Y35906D02*
D03*
Y36220D02*
D03*
Y36535D02*
D03*
Y36850D02*
D03*
Y37165D02*
D03*
Y37480D02*
D03*
Y37795D02*
D03*
X37452D02*
D03*
Y37480D02*
D03*
Y37165D02*
D03*
Y36850D02*
D03*
Y36535D02*
D03*
Y36220D02*
D03*
Y35906D02*
D03*
Y35591D02*
D03*
D15*
X40208Y38346D02*
D03*
X39893D02*
D03*
X39578D02*
D03*
X39263D02*
D03*
X38948D02*
D03*
X38633D02*
D03*
X38319D02*
D03*
X38004D02*
D03*
Y35039D02*
D03*
X38319D02*
D03*
X38633D02*
D03*
X38948D02*
D03*
X39263D02*
D03*
X39578D02*
D03*
X39893D02*
D03*
X40208D02*
D03*
D16*
X37618Y30692D02*
D03*
X38118D02*
D03*
X39118D02*
D03*
X37618Y32746D02*
D03*
X38118D02*
D03*
X39118D02*
D03*
X38618Y30692D02*
D03*
Y32746D02*
D03*
D17*
X41102Y30059D02*
X41142Y30020D01*
Y29951D02*
Y30020D01*
X41107Y29909D02*
Y29917D01*
X38595Y31437D02*
Y32712D01*
X38624Y32740D01*
X39893Y38967D02*
X40124Y39197D01*
Y39656D01*
X39263Y38346D02*
Y38750D01*
X39480Y38967D01*
X39893D01*
X38948Y38346D02*
Y38957D01*
X37452Y37795D02*
Y38189D01*
X37462Y38199D01*
X44124Y38778D02*
Y39656D01*
X43998Y38652D02*
X44124Y38778D01*
X43998Y38652D02*
X45090D01*
X45254Y38488D01*
Y37687D02*
Y38488D01*
X45777Y36313D02*
Y36868D01*
X46177Y37268D01*
Y37677D01*
X42157Y36742D02*
X43053D01*
X43319Y37008D01*
Y37726D01*
X42177Y35006D02*
X43384D01*
X43777Y35400D01*
Y36313D01*
X41649Y30827D02*
Y32362D01*
X39118Y32746D02*
X39519D01*
X39903Y32362D01*
X40494D01*
X39118Y32746D02*
Y33276D01*
X40494Y32362D02*
Y33139D01*
X39263Y35039D02*
X39263Y35039D01*
X40494Y30226D02*
Y30827D01*
X46163Y30118D02*
Y30988D01*
X45248Y30344D02*
Y30988D01*
Y31742D02*
X46163D01*
X46517D01*
X46635Y31624D01*
Y31142D02*
Y31624D01*
Y31142D02*
X46769Y31008D01*
X47167D01*
Y31762D02*
Y32264D01*
X47423Y32520D01*
Y36122D01*
X47232Y36313D02*
X47423Y36122D01*
X46777Y36313D02*
X47232D01*
X43777Y32632D02*
Y33313D01*
Y32632D02*
X44293Y32116D01*
Y31738D02*
Y32116D01*
X43171Y31722D02*
X43614D01*
X43732Y31604D01*
Y31102D02*
Y31604D01*
Y31102D02*
X43850Y30984D01*
X44293D01*
X42492Y31722D02*
X43171D01*
X38118Y32746D02*
X38618D01*
X38118Y30692D02*
X38618D01*
X39118D02*
X39651D01*
X39785Y30827D01*
X40494D01*
X43171Y30394D02*
Y30968D01*
X40494Y30226D02*
X40651Y30069D01*
X44657Y29754D02*
X45248Y30344D01*
X42846Y30069D02*
X43171Y30394D01*
X42564Y37726D02*
Y38661D01*
X37452Y36850D02*
X38289D01*
X38604Y37165D01*
X40326D02*
X40759D01*
X40130Y36969D02*
X40326Y37165D01*
X40130Y36732D02*
Y36969D01*
Y36732D02*
X40326Y36535D01*
X40759D01*
X38604Y37165D02*
X40326D01*
X41649Y30827D02*
X42334D01*
X42167Y33602D02*
Y34252D01*
X40429Y33205D02*
Y33898D01*
Y33205D02*
X40494Y33139D01*
X41183Y33898D02*
X41576D01*
X41872Y33602D01*
X42167D01*
X40494Y33139D02*
X42806D01*
X42980Y33313D01*
X43777D01*
X41507Y36742D02*
X42157D01*
X40759Y36850D02*
X41133D01*
X41242Y36742D01*
X41507D01*
Y37293D02*
Y37589D01*
X41645Y37726D01*
X42564D01*
X37452Y37480D02*
X38220D01*
X38220Y37480D01*
X44027Y37844D02*
X44490D01*
X43899Y37717D02*
X44027Y37844D01*
X43777Y37018D02*
X43899Y37140D01*
X43777Y36313D02*
Y37018D01*
X43899Y37140D02*
Y37717D01*
X45799Y38474D02*
X46773D01*
X46931Y38317D01*
Y37854D02*
Y38317D01*
X42151Y35994D02*
X42157Y35988D01*
X41537Y35994D02*
X42151D01*
X40759Y36535D02*
X41212D01*
X41537Y36211D01*
Y35994D02*
Y36211D01*
Y34803D02*
Y35994D01*
X41281Y34547D02*
X41537Y34803D01*
X40592Y34547D02*
X41281D01*
X40429Y34384D02*
X40592Y34547D01*
X40429Y33898D02*
Y34384D01*
X43319Y38652D02*
X43998D01*
X37452Y36535D02*
X38604D01*
X38604Y36535D01*
X39637D01*
X39952Y36220D01*
X40759D01*
X37521Y35039D02*
X38004D01*
X38004Y35039D01*
X37452Y35906D02*
X37905D01*
X37984Y35984D01*
X38289D01*
X37452Y35591D02*
X38771D01*
X38958Y35778D01*
Y36053D01*
X38118Y30692D02*
Y31423D01*
X38122Y31427D01*
X38618Y32746D02*
X38624Y32740D01*
X44777Y34490D02*
Y36313D01*
X44569Y34281D02*
X44777Y34490D01*
X44194Y34281D02*
X44569D01*
X40948Y30069D02*
X41468D01*
X42846D01*
X39263Y34637D02*
Y35039D01*
Y34637D02*
X39609Y34291D01*
Y33898D02*
Y34291D01*
X38633Y34605D02*
Y35039D01*
X37729Y33701D02*
X38633Y34605D01*
X38855Y33538D02*
Y33898D01*
Y33538D02*
X39118Y33276D01*
X44113Y28986D02*
X45031D01*
X46163Y30118D01*
X42113Y28986D02*
Y29591D01*
X42276Y29754D01*
X44657D01*
X41107Y28982D02*
Y29909D01*
X40948Y30069D02*
X41107Y29909D01*
X40651Y30069D02*
X40948D01*
X38319Y34573D02*
Y35039D01*
X40651Y33139D02*
X40849D01*
X40494Y32982D02*
X40651Y33139D01*
X40604D02*
X40651D01*
X40436Y33307D02*
X40604Y33139D01*
X41872Y33602D02*
X41893D01*
X42148Y33858D01*
X41803Y33671D02*
X41961D01*
X41793Y33681D02*
X41803Y33671D01*
X43777Y32632D02*
Y32781D01*
X43261Y33297D02*
X43777Y32781D01*
X43359Y33278D02*
X43635Y33002D01*
X43458Y33297D02*
X43704Y33051D01*
X41814Y35994D02*
X41844D01*
X41548Y35728D02*
X41814Y35994D01*
X41754D02*
X41844D01*
X41537Y36211D02*
X41754Y35994D01*
X40130Y36969D02*
Y36980D01*
X39954Y37156D02*
X40130Y36980D01*
Y37066D01*
X40200Y37136D01*
X40042Y37068D02*
X40131D01*
X40200Y37136D01*
X44124Y38783D02*
Y38878D01*
Y38783D02*
X44235Y38671D01*
X44117Y38652D02*
Y38776D01*
X44124Y38783D01*
X38319Y38346D02*
Y38947D01*
X38338Y38967D01*
X45672Y38601D02*
Y38917D01*
Y38601D02*
X45799Y38474D01*
X37424Y34203D02*
X37948D01*
X38319Y34573D01*
X37414Y33701D02*
X37729D01*
X37055Y33189D02*
Y34232D01*
X40436Y32510D02*
Y33307D01*
Y32510D02*
X40475Y32470D01*
X40396Y32589D02*
Y33865D01*
X40429Y33898D01*
X39402Y32746D02*
X40131D01*
X40357Y32972D01*
X40278Y32667D02*
Y32894D01*
X40357Y32972D01*
Y32756D02*
Y32972D01*
X40328Y32726D02*
X40357Y32756D01*
X39629Y32667D02*
X40278D01*
X39727Y32579D02*
X40387D01*
X40396Y32589D01*
X39806Y32480D02*
X40288D01*
X40298Y32470D01*
X40011D02*
X40298D01*
X39845Y32420D02*
X40248D01*
X40298Y32470D01*
X41107Y29909D02*
X41110D01*
X41270Y30069D01*
X41066Y29951D02*
X41142D01*
X40948Y30069D02*
X41066Y29951D01*
X40948Y30069D02*
X41066Y29951D01*
Y30022D01*
X41102Y30059D01*
D18*
X39124Y39656D02*
D03*
X40124D02*
D03*
X45124D02*
D03*
X44124D02*
D03*
X43124D02*
D03*
X42124D02*
D03*
X41124D02*
D03*
D19*
X46710Y39459D02*
D03*
X37537D02*
D03*
Y29222D02*
D03*
X46710D02*
D03*
D20*
X42113Y28986D02*
D03*
X43113D02*
D03*
X44113D02*
D03*
X40107Y28982D02*
D03*
X41107D02*
D03*
X43777Y36313D02*
D03*
X44777D02*
D03*
X45777D02*
D03*
X46777D02*
D03*
Y33313D02*
D03*
X45777D02*
D03*
X44777D02*
D03*
X43777D02*
D03*
D21*
X38595Y31437D02*
D03*
X37462Y38199D02*
D03*
X42492Y31722D02*
D03*
X42334Y30827D02*
D03*
X42167Y33602D02*
D03*
X41507Y37293D02*
D03*
Y36742D02*
D03*
X38220Y37480D02*
D03*
X41537Y35994D02*
D03*
X38604Y36535D02*
D03*
X37521Y35039D02*
D03*
X38958Y36053D02*
D03*
X38289Y35984D02*
D03*
X38122Y31427D02*
D03*
X44194Y34281D02*
D03*
X38948Y38957D02*
D03*
X38338Y38967D02*
D03*
X45672Y38917D02*
D03*
X37055Y33189D02*
D03*
M02*
