G04 Layer_Color=2752767*
%FSLAX24Y24*%
%MOIN*%
G70*
G01*
G75*
%ADD409C,0.0020*%
%ADD410C,0.0027*%
D409*
X39044Y39576D02*
Y39736D01*
X39204D01*
Y39576D01*
X39044D01*
X40044D02*
Y39736D01*
X40204D01*
Y39576D01*
X40044D01*
X45044D02*
Y39736D01*
X45204D01*
Y39576D01*
X45044D01*
X44044D02*
Y39736D01*
X44204D01*
Y39576D01*
X44044D01*
X43044D02*
Y39736D01*
X43204D01*
Y39576D01*
X43044D01*
X42044D02*
Y39736D01*
X42204D01*
Y39576D01*
X42044D01*
X41044D02*
Y39736D01*
X41204D01*
Y39576D01*
X41044D01*
X42113Y28906D02*
X42033Y29066D01*
X42193D01*
X42113Y28906D01*
X43113D02*
X43033Y29066D01*
X43193D01*
X43113Y28906D01*
X44113D02*
X44033Y29066D01*
X44193D01*
X44113Y28906D01*
X40107Y28902D02*
X40027Y29062D01*
X40187D01*
X40107Y28902D01*
X41107D02*
X41027Y29062D01*
X41187D01*
X41107Y28902D01*
X43777Y36233D02*
X43697Y36393D01*
X43857D01*
X43777Y36233D01*
X44777D02*
X44697Y36393D01*
X44857D01*
X44777Y36233D01*
X45777D02*
X45697Y36393D01*
X45857D01*
X45777Y36233D01*
X46777D02*
X46697Y36393D01*
X46857D01*
X46777Y36233D01*
Y33233D02*
X46697Y33393D01*
X46857D01*
X46777Y33233D01*
X45777D02*
X45697Y33393D01*
X45857D01*
X45777Y33233D01*
X44777D02*
X44697Y33393D01*
X44857D01*
X44777Y33233D01*
X43777D02*
X43697Y33393D01*
X43857D01*
X43777Y33233D01*
X38595Y31357D02*
X38635Y31397D01*
X38675D01*
X38635Y31437D01*
X38675Y31477D01*
X38635D01*
X38595Y31517D01*
X38555Y31477D01*
X38515D01*
X38555Y31437D01*
X38515Y31397D01*
X38555D01*
X38595Y31357D01*
X37462Y38119D02*
X37502Y38159D01*
X37542D01*
X37502Y38199D01*
X37542Y38239D01*
X37502D01*
X37462Y38279D01*
X37422Y38239D01*
X37382D01*
X37422Y38199D01*
X37382Y38159D01*
X37422D01*
X37462Y38119D01*
X42492Y31642D02*
X42532Y31682D01*
X42572D01*
X42532Y31722D01*
X42572Y31762D01*
X42532D01*
X42492Y31802D01*
X42452Y31762D01*
X42412D01*
X42452Y31722D01*
X42412Y31682D01*
X42452D01*
X42492Y31642D01*
X42334Y30747D02*
X42374Y30787D01*
X42414D01*
X42374Y30827D01*
X42414Y30867D01*
X42374D01*
X42334Y30907D01*
X42294Y30867D01*
X42254D01*
X42294Y30827D01*
X42254Y30787D01*
X42294D01*
X42334Y30747D01*
X42167Y33522D02*
X42207Y33562D01*
X42247D01*
X42207Y33602D01*
X42247Y33642D01*
X42207D01*
X42167Y33682D01*
X42127Y33642D01*
X42087D01*
X42127Y33602D01*
X42087Y33562D01*
X42127D01*
X42167Y33522D01*
X41507Y37213D02*
X41547Y37253D01*
X41587D01*
X41547Y37293D01*
X41587Y37333D01*
X41547D01*
X41507Y37373D01*
X41467Y37333D01*
X41427D01*
X41467Y37293D01*
X41427Y37253D01*
X41467D01*
X41507Y37213D01*
Y36662D02*
X41547Y36702D01*
X41587D01*
X41547Y36742D01*
X41587Y36782D01*
X41547D01*
X41507Y36822D01*
X41467Y36782D01*
X41427D01*
X41467Y36742D01*
X41427Y36702D01*
X41467D01*
X41507Y36662D01*
X38220Y37400D02*
X38260Y37440D01*
X38300D01*
X38260Y37480D01*
X38300Y37520D01*
X38260D01*
X38220Y37560D01*
X38180Y37520D01*
X38140D01*
X38180Y37480D01*
X38140Y37440D01*
X38180D01*
X38220Y37400D01*
X41537Y35914D02*
X41577Y35954D01*
X41617D01*
X41577Y35994D01*
X41617Y36034D01*
X41577D01*
X41537Y36074D01*
X41497Y36034D01*
X41457D01*
X41497Y35994D01*
X41457Y35954D01*
X41497D01*
X41537Y35914D01*
X38604Y36455D02*
X38644Y36495D01*
X38684D01*
X38644Y36535D01*
X38684Y36575D01*
X38644D01*
X38604Y36615D01*
X38564Y36575D01*
X38524D01*
X38564Y36535D01*
X38524Y36495D01*
X38564D01*
X38604Y36455D01*
X37521Y34959D02*
X37561Y34999D01*
X37601D01*
X37561Y35039D01*
X37601Y35079D01*
X37561D01*
X37521Y35119D01*
X37481Y35079D01*
X37441D01*
X37481Y35039D01*
X37441Y34999D01*
X37481D01*
X37521Y34959D01*
X38958Y35973D02*
X38998Y36013D01*
X39038D01*
X38998Y36053D01*
X39038Y36093D01*
X38998D01*
X38958Y36133D01*
X38918Y36093D01*
X38878D01*
X38918Y36053D01*
X38878Y36013D01*
X38918D01*
X38958Y35973D01*
X38289Y35904D02*
X38329Y35944D01*
X38369D01*
X38329Y35984D01*
X38369Y36024D01*
X38329D01*
X38289Y36064D01*
X38249Y36024D01*
X38209D01*
X38249Y35984D01*
X38209Y35944D01*
X38249D01*
X38289Y35904D01*
X38122Y31347D02*
X38162Y31387D01*
X38202D01*
X38162Y31427D01*
X38202Y31467D01*
X38162D01*
X38122Y31507D01*
X38082Y31467D01*
X38042D01*
X38082Y31427D01*
X38042Y31387D01*
X38082D01*
X38122Y31347D01*
X44194Y34202D02*
X44234Y34241D01*
X44274D01*
X44234Y34281D01*
X44274Y34321D01*
X44234D01*
X44194Y34362D01*
X44154Y34321D01*
X44114D01*
X44154Y34281D01*
X44114Y34241D01*
X44154D01*
X44194Y34202D01*
X38948Y38877D02*
X38988Y38917D01*
X39028D01*
X38988Y38957D01*
X39028Y38997D01*
X38988D01*
X38948Y39037D01*
X38908Y38997D01*
X38868D01*
X38908Y38957D01*
X38868Y38917D01*
X38908D01*
X38948Y38877D01*
X38338Y38887D02*
X38378Y38927D01*
X38418D01*
X38378Y38967D01*
X38418Y39007D01*
X38378D01*
X38338Y39047D01*
X38298Y39007D01*
X38258D01*
X38298Y38967D01*
X38258Y38927D01*
X38298D01*
X38338Y38887D01*
X45672Y38837D02*
X45712Y38877D01*
X45752D01*
X45712Y38917D01*
X45752Y38957D01*
X45712D01*
X45672Y38997D01*
X45632Y38957D01*
X45592D01*
X45632Y38917D01*
X45592Y38877D01*
X45632D01*
X45672Y38837D01*
X37055Y33109D02*
X37095Y33149D01*
X37135D01*
X37095Y33189D01*
X37135Y33229D01*
X37095D01*
X37055Y33269D01*
X37015Y33229D01*
X36975D01*
X37015Y33189D01*
X36975Y33149D01*
X37015D01*
X37055Y33109D01*
D410*
X46790Y39459D02*
G03*
X46790Y39459I-80J0D01*
G01*
X37617D02*
G03*
X37617Y39459I-80J0D01*
G01*
Y29222D02*
G03*
X37617Y29222I-80J0D01*
G01*
X46790D02*
G03*
X46790Y29222I-80J0D01*
G01*
M02*
