M48
;Layer_Color=9474304
;FILE_FORMAT=2:4
INCH,LZ
;TYPE=PLATED
T1F00S00C0.0200
T2F00S00C0.0320
T3F00S00C0.0394
T4F00S00C0.0984
%
T01
X042334Y030827
X042492Y031722
X042167Y033602
X044194Y034281
X041537Y035994
X041507Y036742
Y037293
X03822Y03748
X038604Y036535
X038958Y036053
X038289Y035984
X037521Y035039
X037055Y033189
X038122Y031427
X038595Y031437
X038338Y038967
X038948Y038957
X037462Y038199
X045672Y038917
T02
X040107Y028982
X041107
X042113Y028986
X043113
X044113
X043777Y033313
X044777
X045777
X046777
Y036313
X045777
X044777
X043777
T03
X039124Y039656
X040124
X041124
X042124
X043124
X044124
X045124
T04
X037537Y029222
X04671
Y039459
X037537
M30
