G04 Layer_Physical_Order=2*
G04 Layer_Color=16711680*
%FSLAX24Y24*%
%MOIN*%
G70*
G01*
G75*
%ADD17C,0.0100*%
%ADD18C,0.0700*%
%ADD19C,0.0984*%
%ADD20O,0.0480X0.0960*%
%ADD21C,0.0380*%
%ADD22C,0.0060*%
G36*
X47664Y28328D02*
X36603D01*
Y40373D01*
X47664D01*
Y28328D01*
D02*
G37*
%LPC*%
G36*
X40124Y40109D02*
X40006Y40094D01*
X39897Y40049D01*
X39803Y39976D01*
X39731Y39882D01*
X39685Y39773D01*
X39670Y39656D01*
X39685Y39538D01*
X39731Y39429D01*
X39803Y39335D01*
X39897Y39262D01*
X40006Y39217D01*
X40124Y39202D01*
X40241Y39217D01*
X40351Y39262D01*
X40445Y39335D01*
X40517Y39429D01*
X40562Y39538D01*
X40578Y39656D01*
X40562Y39773D01*
X40517Y39882D01*
X40445Y39976D01*
X40351Y40049D01*
X40241Y40094D01*
X40124Y40109D01*
D02*
G37*
G36*
X46710Y40054D02*
X46594Y40042D01*
X46483Y40008D01*
X46380Y39953D01*
X46290Y39879D01*
X46216Y39789D01*
X46161Y39686D01*
X46127Y39575D01*
X46115Y39459D01*
X46127Y39343D01*
X46161Y39231D01*
X46216Y39128D01*
X46290Y39038D01*
X46380Y38964D01*
X46483Y38909D01*
X46594Y38875D01*
X46710Y38864D01*
X46826Y38875D01*
X46938Y38909D01*
X47041Y38964D01*
X47131Y39038D01*
X47205Y39128D01*
X47260Y39231D01*
X47294Y39343D01*
X47305Y39459D01*
X47294Y39575D01*
X47260Y39686D01*
X47205Y39789D01*
X47131Y39879D01*
X47041Y39953D01*
X46938Y40008D01*
X46826Y40042D01*
X46710Y40054D01*
D02*
G37*
G36*
X37537D02*
X37421Y40042D01*
X37309Y40008D01*
X37206Y39953D01*
X37116Y39879D01*
X37042Y39789D01*
X36987Y39686D01*
X36953Y39575D01*
X36942Y39459D01*
X36953Y39343D01*
X36987Y39231D01*
X37042Y39128D01*
X37116Y39038D01*
X37206Y38964D01*
X37309Y38909D01*
X37421Y38875D01*
X37537Y38864D01*
X37653Y38875D01*
X37765Y38909D01*
X37868Y38964D01*
X37958Y39038D01*
X38032Y39128D01*
X38087Y39231D01*
X38121Y39343D01*
X38132Y39459D01*
X38121Y39575D01*
X38087Y39686D01*
X38032Y39789D01*
X37958Y39879D01*
X37868Y39953D01*
X37765Y40008D01*
X37653Y40042D01*
X37537Y40054D01*
D02*
G37*
G36*
X42124Y40109D02*
X42006Y40094D01*
X41897Y40049D01*
X41803Y39976D01*
X41731Y39882D01*
X41685Y39773D01*
X41670Y39656D01*
X41685Y39538D01*
X41731Y39429D01*
X41803Y39335D01*
X41897Y39262D01*
X41971Y39232D01*
Y38819D01*
X41759Y38608D01*
X38618D01*
X38527Y38699D01*
X38530Y38748D01*
X38545Y38760D01*
X38591Y38820D01*
X38616Y38879D01*
X38657Y38881D01*
X38666Y38879D01*
X38667Y38878D01*
X38695Y38810D01*
X38742Y38750D01*
X38802Y38703D01*
X38873Y38674D01*
X38948Y38664D01*
X39024Y38674D01*
X39095Y38703D01*
X39155Y38750D01*
X39197Y38804D01*
X40937D01*
X40995Y38815D01*
X41045Y38849D01*
X41232Y39036D01*
X41265Y39085D01*
X41277Y39144D01*
Y39232D01*
X41351Y39262D01*
X41445Y39335D01*
X41517Y39429D01*
X41562Y39538D01*
X41578Y39656D01*
X41562Y39773D01*
X41517Y39882D01*
X41445Y39976D01*
X41351Y40049D01*
X41241Y40094D01*
X41124Y40109D01*
X41006Y40094D01*
X40897Y40049D01*
X40803Y39976D01*
X40731Y39882D01*
X40685Y39773D01*
X40670Y39656D01*
X40685Y39538D01*
X40731Y39429D01*
X40803Y39335D01*
X40897Y39262D01*
X40940Y39244D01*
X40950Y39186D01*
X40873Y39110D01*
X39197D01*
X39155Y39164D01*
X39095Y39210D01*
X39024Y39239D01*
X38948Y39249D01*
X38873Y39239D01*
X38802Y39210D01*
X38742Y39164D01*
X38695Y39103D01*
X38671Y39044D01*
X38630Y39043D01*
X38620Y39045D01*
X38620Y39045D01*
X38591Y39113D01*
X38545Y39173D01*
X38484Y39220D01*
X38414Y39249D01*
X38338Y39259D01*
X38262Y39249D01*
X38192Y39220D01*
X38131Y39173D01*
X38085Y39113D01*
X38056Y39042D01*
X38046Y38967D01*
X38056Y38891D01*
X38085Y38820D01*
X38131Y38760D01*
X38185Y38718D01*
Y38671D01*
X38197Y38613D01*
X38230Y38563D01*
X38447Y38347D01*
X38496Y38313D01*
X38555Y38302D01*
X41822D01*
X41881Y38313D01*
X41931Y38347D01*
X42232Y38648D01*
X42265Y38697D01*
X42277Y38756D01*
Y39232D01*
X42351Y39262D01*
X42445Y39335D01*
X42517Y39429D01*
X42562Y39538D01*
X42578Y39656D01*
X42562Y39773D01*
X42517Y39882D01*
X42445Y39976D01*
X42351Y40049D01*
X42241Y40094D01*
X42124Y40109D01*
D02*
G37*
G36*
X43124D02*
X43006Y40094D01*
X42897Y40049D01*
X42803Y39976D01*
X42731Y39882D01*
X42685Y39773D01*
X42670Y39656D01*
X42685Y39538D01*
X42731Y39429D01*
X42803Y39335D01*
X42897Y39262D01*
X42971Y39232D01*
Y38520D01*
X42684Y38234D01*
X38372D01*
X38299Y38307D01*
X38249Y38340D01*
X38191Y38352D01*
X37710D01*
X37669Y38406D01*
X37608Y38452D01*
X37538Y38481D01*
X37462Y38491D01*
X37387Y38481D01*
X37316Y38452D01*
X37255Y38406D01*
X37209Y38345D01*
X37180Y38275D01*
X37170Y38199D01*
X37180Y38123D01*
X37209Y38053D01*
X37255Y37992D01*
X37316Y37945D01*
X37387Y37916D01*
X37462Y37906D01*
X37538Y37916D01*
X37608Y37945D01*
X37669Y37992D01*
X37710Y38046D01*
X38127D01*
X38201Y37973D01*
X38250Y37939D01*
X38309Y37928D01*
X42748D01*
X42806Y37939D01*
X42856Y37973D01*
X43232Y38349D01*
X43265Y38398D01*
X43277Y38457D01*
Y39232D01*
X43351Y39262D01*
X43445Y39335D01*
X43517Y39429D01*
X43562Y39538D01*
X43578Y39656D01*
X43562Y39773D01*
X43517Y39882D01*
X43445Y39976D01*
X43351Y40049D01*
X43241Y40094D01*
X43124Y40109D01*
D02*
G37*
G36*
X38220Y37773D02*
X38144Y37763D01*
X38074Y37734D01*
X38013Y37687D01*
X37967Y37627D01*
X37938Y37556D01*
X37928Y37480D01*
X37938Y37405D01*
X37967Y37334D01*
X38013Y37273D01*
X38074Y37227D01*
X38144Y37198D01*
X38220Y37188D01*
X38296Y37198D01*
X38366Y37227D01*
X38427Y37273D01*
X38468Y37327D01*
X40686D01*
X40828Y37185D01*
X40878Y37152D01*
X40937Y37140D01*
X41259D01*
X41301Y37086D01*
X41361Y37040D01*
X41432Y37011D01*
X41507Y37001D01*
X41583Y37011D01*
X41654Y37040D01*
X41714Y37086D01*
X41761Y37147D01*
X41790Y37218D01*
X41800Y37293D01*
X41790Y37369D01*
X41761Y37440D01*
X41714Y37500D01*
X41654Y37547D01*
X41583Y37576D01*
X41507Y37586D01*
X41432Y37576D01*
X41361Y37547D01*
X41301Y37500D01*
X41259Y37446D01*
X41000D01*
X40858Y37588D01*
X40808Y37622D01*
X40750Y37633D01*
X38468D01*
X38427Y37687D01*
X38366Y37734D01*
X38296Y37763D01*
X38220Y37773D01*
D02*
G37*
G36*
X44124Y40109D02*
X44006Y40094D01*
X43897Y40049D01*
X43803Y39976D01*
X43731Y39882D01*
X43685Y39773D01*
X43670Y39656D01*
X43685Y39538D01*
X43731Y39429D01*
X43803Y39335D01*
X43897Y39262D01*
X43971Y39232D01*
Y38939D01*
X42600Y37569D01*
X42567Y37519D01*
X42555Y37461D01*
Y36500D01*
X42202Y36147D01*
X41785D01*
X41744Y36201D01*
X41683Y36247D01*
X41613Y36277D01*
X41537Y36287D01*
X41461Y36277D01*
X41391Y36247D01*
X41330Y36201D01*
X41284Y36140D01*
X41254Y36070D01*
X41245Y35994D01*
X41254Y35918D01*
X41284Y35848D01*
X41330Y35787D01*
X41391Y35741D01*
X41461Y35712D01*
X41537Y35702D01*
X41613Y35712D01*
X41683Y35741D01*
X41744Y35787D01*
X41785Y35841D01*
X42265D01*
X42324Y35853D01*
X42373Y35886D01*
X42816Y36329D01*
X42850Y36378D01*
X42861Y36437D01*
Y37397D01*
X44232Y38768D01*
X44265Y38817D01*
X44277Y38876D01*
Y39232D01*
X44351Y39262D01*
X44445Y39335D01*
X44517Y39429D01*
X44562Y39538D01*
X44578Y39656D01*
X44562Y39773D01*
X44517Y39882D01*
X44445Y39976D01*
X44351Y40049D01*
X44241Y40094D01*
X44124Y40109D01*
D02*
G37*
G36*
X46777Y36896D02*
X46688Y36884D01*
X46606Y36850D01*
X46535Y36795D01*
X46480Y36724D01*
X46446Y36642D01*
X46434Y36553D01*
Y36073D01*
X46446Y35984D01*
X46480Y35902D01*
X46535Y35831D01*
X46606Y35776D01*
X46688Y35742D01*
X46777Y35730D01*
X46866Y35742D01*
X46949Y35776D01*
X47020Y35831D01*
X47074Y35902D01*
X47108Y35984D01*
X47120Y36073D01*
Y36553D01*
X47108Y36642D01*
X47074Y36724D01*
X47020Y36795D01*
X46949Y36850D01*
X46866Y36884D01*
X46777Y36896D01*
D02*
G37*
G36*
X45777D02*
X45688Y36884D01*
X45606Y36850D01*
X45535Y36795D01*
X45480Y36724D01*
X45446Y36642D01*
X45434Y36553D01*
Y36073D01*
X45446Y35984D01*
X45480Y35902D01*
X45535Y35831D01*
X45606Y35776D01*
X45688Y35742D01*
X45777Y35730D01*
X45866Y35742D01*
X45949Y35776D01*
X46020Y35831D01*
X46074Y35902D01*
X46108Y35984D01*
X46120Y36073D01*
Y36553D01*
X46108Y36642D01*
X46074Y36724D01*
X46020Y36795D01*
X45949Y36850D01*
X45866Y36884D01*
X45777Y36896D01*
D02*
G37*
G36*
X44777D02*
X44688Y36884D01*
X44606Y36850D01*
X44535Y36795D01*
X44480Y36724D01*
X44446Y36642D01*
X44434Y36553D01*
Y36073D01*
X44446Y35984D01*
X44480Y35902D01*
X44535Y35831D01*
X44606Y35776D01*
X44688Y35742D01*
X44777Y35730D01*
X44866Y35742D01*
X44949Y35776D01*
X45020Y35831D01*
X45074Y35902D01*
X45108Y35984D01*
X45120Y36073D01*
Y36553D01*
X45108Y36642D01*
X45074Y36724D01*
X45020Y36795D01*
X44949Y36850D01*
X44866Y36884D01*
X44777Y36896D01*
D02*
G37*
G36*
X43777D02*
X43688Y36884D01*
X43606Y36850D01*
X43535Y36795D01*
X43480Y36724D01*
X43446Y36642D01*
X43434Y36553D01*
Y36073D01*
X43446Y35984D01*
X43480Y35902D01*
X43535Y35831D01*
X43606Y35776D01*
X43688Y35742D01*
X43777Y35730D01*
X43866Y35742D01*
X43949Y35776D01*
X44020Y35831D01*
X44074Y35902D01*
X44108Y35984D01*
X44120Y36073D01*
Y36553D01*
X44108Y36642D01*
X44074Y36724D01*
X44020Y36795D01*
X43949Y36850D01*
X43866Y36884D01*
X43777Y36896D01*
D02*
G37*
G36*
X37521Y35332D02*
X37446Y35322D01*
X37375Y35293D01*
X37314Y35246D01*
X37268Y35186D01*
X37239Y35115D01*
X37229Y35039D01*
X37239Y34964D01*
X37268Y34893D01*
X37314Y34833D01*
X37368Y34791D01*
Y34459D01*
X37380Y34400D01*
X37413Y34351D01*
X37600Y34164D01*
X37650Y34130D01*
X37708Y34119D01*
X43954D01*
X43988Y34075D01*
X44048Y34028D01*
X44119Y33999D01*
X44194Y33989D01*
X44270Y33999D01*
X44341Y34028D01*
X44401Y34075D01*
X44448Y34135D01*
X44477Y34206D01*
X44487Y34281D01*
X44477Y34357D01*
X44448Y34428D01*
X44401Y34488D01*
X44341Y34535D01*
X44270Y34564D01*
X44194Y34574D01*
X44119Y34564D01*
X44048Y34535D01*
X43988Y34488D01*
X43941Y34428D01*
X43940Y34425D01*
X37772D01*
X37674Y34522D01*
Y34791D01*
X37728Y34833D01*
X37775Y34893D01*
X37804Y34964D01*
X37814Y35039D01*
X37804Y35115D01*
X37775Y35186D01*
X37728Y35246D01*
X37668Y35293D01*
X37597Y35322D01*
X37521Y35332D01*
D02*
G37*
G36*
X38958Y36346D02*
X38883Y36336D01*
X38812Y36306D01*
X38751Y36260D01*
X38705Y36199D01*
X38676Y36129D01*
X38666Y36053D01*
X38676Y35977D01*
X38705Y35907D01*
X38751Y35846D01*
X38805Y35805D01*
Y35492D01*
X38817Y35433D01*
X38850Y35384D01*
X39076Y35158D01*
X39126Y35124D01*
X39184Y35113D01*
X46405D01*
X46624Y34893D01*
Y33858D01*
X46606Y33850D01*
X46535Y33795D01*
X46480Y33724D01*
X46446Y33642D01*
X46434Y33553D01*
Y33073D01*
X46446Y32984D01*
X46480Y32902D01*
X46535Y32831D01*
X46606Y32776D01*
X46688Y32742D01*
X46777Y32730D01*
X46866Y32742D01*
X46949Y32776D01*
X47020Y32831D01*
X47074Y32902D01*
X47108Y32984D01*
X47120Y33073D01*
Y33553D01*
X47108Y33642D01*
X47074Y33724D01*
X47020Y33795D01*
X46949Y33850D01*
X46930Y33858D01*
Y34957D01*
X46918Y35015D01*
X46885Y35065D01*
X46576Y35374D01*
X46527Y35407D01*
X46468Y35419D01*
X39248D01*
X39111Y35555D01*
Y35805D01*
X39165Y35846D01*
X39212Y35907D01*
X39241Y35977D01*
X39251Y36053D01*
X39241Y36129D01*
X39212Y36199D01*
X39165Y36260D01*
X39105Y36306D01*
X39034Y36336D01*
X38958Y36346D01*
D02*
G37*
G36*
X38289Y36277D02*
X38213Y36267D01*
X38143Y36238D01*
X38082Y36191D01*
X38036Y36130D01*
X38006Y36060D01*
X37996Y35984D01*
X38006Y35909D01*
X38036Y35838D01*
X38082Y35777D01*
X38136Y35736D01*
Y35059D01*
X38148Y35001D01*
X38181Y34951D01*
X38437Y34695D01*
X38486Y34662D01*
X38545Y34650D01*
X45401D01*
X45624Y34427D01*
Y33858D01*
X45606Y33850D01*
X45535Y33795D01*
X45480Y33724D01*
X45446Y33642D01*
X45434Y33553D01*
Y33073D01*
X45446Y32984D01*
X45480Y32902D01*
X45535Y32831D01*
X45606Y32776D01*
X45688Y32742D01*
X45777Y32730D01*
X45866Y32742D01*
X45949Y32776D01*
X46020Y32831D01*
X46074Y32902D01*
X46108Y32984D01*
X46120Y33073D01*
Y33553D01*
X46108Y33642D01*
X46074Y33724D01*
X46020Y33795D01*
X45949Y33850D01*
X45930Y33858D01*
Y34490D01*
X45918Y34549D01*
X45885Y34598D01*
X45572Y34911D01*
X45523Y34944D01*
X45464Y34956D01*
X38608D01*
X38442Y35122D01*
Y35736D01*
X38496Y35777D01*
X38542Y35838D01*
X38572Y35909D01*
X38581Y35984D01*
X38572Y36060D01*
X38542Y36130D01*
X38496Y36191D01*
X38435Y36238D01*
X38365Y36267D01*
X38289Y36277D01*
D02*
G37*
G36*
X43777Y33896D02*
X43688Y33884D01*
X43606Y33850D01*
X43535Y33795D01*
X43480Y33724D01*
X43446Y33642D01*
X43434Y33553D01*
Y33073D01*
X43446Y32984D01*
X43480Y32902D01*
X43535Y32831D01*
X43606Y32776D01*
X43688Y32742D01*
X43777Y32730D01*
X43866Y32742D01*
X43949Y32776D01*
X44020Y32831D01*
X44074Y32902D01*
X44108Y32984D01*
X44120Y33073D01*
Y33553D01*
X44108Y33642D01*
X44074Y33724D01*
X44020Y33795D01*
X43949Y33850D01*
X43866Y33884D01*
X43777Y33896D01*
D02*
G37*
G36*
X46271Y31602D02*
X42860D01*
Y30933D01*
X43181D01*
Y30431D01*
X43822D01*
Y29929D01*
X45309D01*
Y30431D01*
X45950D01*
Y30933D01*
X46271D01*
Y31602D01*
D02*
G37*
G36*
X46710Y29817D02*
X46594Y29806D01*
X46483Y29772D01*
X46380Y29717D01*
X46290Y29643D01*
X46216Y29553D01*
X46161Y29450D01*
X46127Y29339D01*
X46115Y29222D01*
X46127Y29106D01*
X46161Y28995D01*
X46216Y28892D01*
X46290Y28802D01*
X46380Y28728D01*
X46483Y28673D01*
X46594Y28639D01*
X46710Y28627D01*
X46826Y28639D01*
X46938Y28673D01*
X47041Y28728D01*
X47131Y28802D01*
X47205Y28892D01*
X47260Y28995D01*
X47294Y29106D01*
X47305Y29222D01*
X47294Y29339D01*
X47260Y29450D01*
X47205Y29553D01*
X47131Y29643D01*
X47041Y29717D01*
X46938Y29772D01*
X46826Y29806D01*
X46710Y29817D01*
D02*
G37*
G36*
X37537D02*
X37421Y29806D01*
X37309Y29772D01*
X37206Y29717D01*
X37116Y29643D01*
X37042Y29553D01*
X36987Y29450D01*
X36953Y29339D01*
X36942Y29222D01*
X36953Y29106D01*
X36987Y28995D01*
X37042Y28892D01*
X37116Y28802D01*
X37206Y28728D01*
X37309Y28673D01*
X37421Y28639D01*
X37537Y28627D01*
X37653Y28639D01*
X37765Y28673D01*
X37868Y28728D01*
X37958Y28802D01*
X38032Y28892D01*
X38087Y28995D01*
X38121Y29106D01*
X38132Y29222D01*
X38121Y29339D01*
X38087Y29450D01*
X38032Y29553D01*
X37958Y29643D01*
X37868Y29717D01*
X37765Y29772D01*
X37653Y29806D01*
X37537Y29817D01*
D02*
G37*
G36*
X44113Y29569D02*
X44024Y29557D01*
X43942Y29523D01*
X43871Y29469D01*
X43816Y29398D01*
X43782Y29315D01*
X43770Y29226D01*
Y28746D01*
X43782Y28657D01*
X43816Y28575D01*
X43871Y28504D01*
X43942Y28449D01*
X44024Y28415D01*
X44113Y28403D01*
X44202Y28415D01*
X44285Y28449D01*
X44356Y28504D01*
X44410Y28575D01*
X44444Y28657D01*
X44456Y28746D01*
Y29226D01*
X44444Y29315D01*
X44410Y29398D01*
X44356Y29469D01*
X44285Y29523D01*
X44202Y29557D01*
X44113Y29569D01*
D02*
G37*
G36*
X42113D02*
X42024Y29557D01*
X41942Y29523D01*
X41871Y29469D01*
X41816Y29398D01*
X41782Y29315D01*
X41770Y29226D01*
Y28746D01*
X41782Y28657D01*
X41816Y28575D01*
X41871Y28504D01*
X41942Y28449D01*
X42024Y28415D01*
X42113Y28403D01*
X42202Y28415D01*
X42284Y28449D01*
X42356Y28504D01*
X42410Y28575D01*
X42444Y28657D01*
X42456Y28746D01*
Y29226D01*
X42444Y29315D01*
X42410Y29398D01*
X42356Y29469D01*
X42284Y29523D01*
X42202Y29557D01*
X42113Y29569D01*
D02*
G37*
G36*
X41107Y29565D02*
X41019Y29554D01*
X40936Y29519D01*
X40865Y29465D01*
X40810Y29394D01*
X40776Y29311D01*
X40765Y29222D01*
Y28742D01*
X40776Y28654D01*
X40810Y28571D01*
X40865Y28500D01*
X40936Y28445D01*
X41019Y28411D01*
X41107Y28400D01*
X41196Y28411D01*
X41279Y28445D01*
X41350Y28500D01*
X41404Y28571D01*
X41439Y28654D01*
X41450Y28742D01*
Y29222D01*
X41439Y29311D01*
X41404Y29394D01*
X41350Y29465D01*
X41279Y29519D01*
X41196Y29554D01*
X41107Y29565D01*
D02*
G37*
%LPD*%
D17*
X41124Y39144D02*
Y39656D01*
X42124Y38756D02*
Y39656D01*
X38555Y38455D02*
X41822D01*
X42124Y38756D01*
X37462Y38199D02*
X38191D01*
X38309Y38081D01*
X42748D01*
X43124Y38457D01*
Y39656D01*
X38220Y37480D02*
X40750D01*
X40937Y37293D01*
X41507D01*
X44124Y38876D02*
Y39656D01*
X42708Y37461D02*
X44124Y38876D01*
X42708Y36437D02*
Y37461D01*
X42265Y35994D02*
X42708Y36437D01*
X41537Y35994D02*
X42265D01*
X38289Y35059D02*
Y35984D01*
X38958Y35492D02*
Y36053D01*
Y35492D02*
X39184Y35266D01*
X46468D01*
X46777Y34957D01*
Y33313D02*
Y34957D01*
X38289Y35059D02*
X38545Y34803D01*
X45464D01*
X45777Y34490D01*
Y33313D02*
Y34490D01*
X37521Y34459D02*
Y35039D01*
Y34459D02*
X37708Y34272D01*
X44283D01*
X38948Y38957D02*
X40937D01*
X41124Y39144D01*
X38338Y38671D02*
X38555Y38455D01*
X38338Y38671D02*
Y38967D01*
D18*
X39124Y39656D02*
D03*
X40124D02*
D03*
X45124D02*
D03*
X44124D02*
D03*
X43124D02*
D03*
X42124D02*
D03*
X41124D02*
D03*
D19*
X46710Y39459D02*
D03*
X37537D02*
D03*
Y29222D02*
D03*
X46710D02*
D03*
D20*
X42113Y28986D02*
D03*
X43113D02*
D03*
X44113D02*
D03*
X40107Y28982D02*
D03*
X41107D02*
D03*
X43777Y36313D02*
D03*
X44777D02*
D03*
X45777D02*
D03*
X46777D02*
D03*
Y33313D02*
D03*
X45777D02*
D03*
X44777D02*
D03*
X43777D02*
D03*
D21*
X38595Y31437D02*
D03*
X37462Y38199D02*
D03*
X42492Y31722D02*
D03*
X42334Y30827D02*
D03*
X42167Y33602D02*
D03*
X41507Y37293D02*
D03*
Y36742D02*
D03*
X38220Y37480D02*
D03*
X41537Y35994D02*
D03*
X38604Y36535D02*
D03*
X37521Y35039D02*
D03*
X38958Y36053D02*
D03*
X38289Y35984D02*
D03*
X38122Y31427D02*
D03*
X44194Y34281D02*
D03*
X38948Y38957D02*
D03*
X38338Y38967D02*
D03*
X45672Y38917D02*
D03*
X37055Y33189D02*
D03*
D22*
X45149Y30438D02*
Y30205D01*
X45032Y30089D01*
X44915Y30205D01*
Y30438D01*
X44799Y30089D02*
X44682D01*
X44741D01*
Y30438D01*
X44799Y30380D01*
X44507Y30089D02*
Y30147D01*
X44449D01*
Y30089D01*
X44507D01*
X44216Y30380D02*
X44157Y30438D01*
X44041D01*
X43982Y30380D01*
Y30147D01*
X44041Y30089D01*
X44157D01*
X44216Y30147D01*
Y30380D01*
X45790Y30591D02*
X45674D01*
X45732D01*
Y30940D01*
X45790Y30882D01*
X45499D02*
X45440Y30940D01*
X45324D01*
X45265Y30882D01*
Y30824D01*
X45324Y30765D01*
X45265Y30707D01*
Y30649D01*
X45324Y30591D01*
X45440D01*
X45499Y30649D01*
Y30707D01*
X45440Y30765D01*
X45499Y30824D01*
Y30882D01*
X45440Y30765D02*
X45324D01*
X45149Y30882D02*
X45090Y30940D01*
X44974D01*
X44915Y30882D01*
Y30649D01*
X44974Y30591D01*
X45090D01*
X45149Y30649D01*
Y30882D01*
X44799Y30591D02*
X44682D01*
X44741D01*
Y30940D01*
X44799Y30882D01*
X44274Y30940D02*
X44391Y30882D01*
X44507Y30765D01*
Y30649D01*
X44449Y30591D01*
X44332D01*
X44274Y30649D01*
Y30707D01*
X44332Y30765D01*
X44507D01*
X43924Y30940D02*
X44041Y30882D01*
X44157Y30765D01*
Y30649D01*
X44099Y30591D01*
X43982D01*
X43924Y30649D01*
Y30707D01*
X43982Y30765D01*
X44157D01*
X43808D02*
X43574D01*
X43458Y30591D02*
X43341D01*
X43399D01*
Y30940D01*
X43458Y30882D01*
X45878Y31442D02*
X46111D01*
Y31093D01*
X45878D01*
X46111Y31267D02*
X45994D01*
X45761Y31093D02*
X45644D01*
X45703D01*
Y31442D01*
X45761D01*
X45295Y31093D02*
X45411D01*
X45469Y31151D01*
Y31267D01*
X45411Y31326D01*
X45295D01*
X45236Y31267D01*
Y31209D01*
X45469D01*
X45120Y31093D02*
Y31442D01*
Y31209D02*
X44945Y31326D01*
X45120Y31209D02*
X44945Y31093D01*
X44711Y31384D02*
Y31326D01*
X44770D01*
X44653D01*
X44711D01*
Y31151D01*
X44653Y31093D01*
X44420D02*
X44303D01*
X44245Y31151D01*
Y31267D01*
X44303Y31326D01*
X44420D01*
X44478Y31267D01*
Y31151D01*
X44420Y31093D01*
X44128Y31326D02*
Y31093D01*
Y31209D01*
X44070Y31267D01*
X44012Y31326D01*
X43953D01*
X43662Y31093D02*
X43778Y31209D01*
Y31326D01*
X43662Y31442D01*
X43254Y31384D02*
X43312Y31442D01*
X43428D01*
X43487Y31384D01*
Y31151D01*
X43428Y31093D01*
X43312D01*
X43254Y31151D01*
X43137Y31093D02*
X43020Y31209D01*
Y31326D01*
X43137Y31442D01*
M02*
