G04 Layer_Color=16711935*
%FSLAX24Y24*%
%MOIN*%
G70*
G01*
G75*
%ADD38C,0.0780*%
%ADD39C,0.1064*%
%ADD40O,0.0560X0.1040*%
%ADD41C,0.0460*%
D38*
X39124Y39656D02*
D03*
X40124D02*
D03*
X45124D02*
D03*
X44124D02*
D03*
X43124D02*
D03*
X42124D02*
D03*
X41124D02*
D03*
D39*
X46710Y39459D02*
D03*
X37537D02*
D03*
Y29222D02*
D03*
X46710D02*
D03*
D40*
X42113Y28986D02*
D03*
X43113D02*
D03*
X44113D02*
D03*
X40107Y28982D02*
D03*
X41107D02*
D03*
X43777Y36313D02*
D03*
X44777D02*
D03*
X45777D02*
D03*
X46777D02*
D03*
Y33313D02*
D03*
X45777D02*
D03*
X44777D02*
D03*
X43777D02*
D03*
D41*
X38595Y31437D02*
D03*
X37462Y38199D02*
D03*
X42492Y31722D02*
D03*
X42334Y30827D02*
D03*
X42167Y33602D02*
D03*
X41507Y37293D02*
D03*
Y36742D02*
D03*
X38220Y37480D02*
D03*
X41537Y35994D02*
D03*
X38604Y36535D02*
D03*
X37521Y35039D02*
D03*
X38958Y36053D02*
D03*
X38289Y35984D02*
D03*
X38122Y31427D02*
D03*
X44194Y34281D02*
D03*
X38948Y38957D02*
D03*
X38338Y38967D02*
D03*
X45672Y38917D02*
D03*
X37055Y33189D02*
D03*
M02*
